<svg xmlns="http://www.w3.org/2000/svg" width="1012" height="1032" style="shape-rendering:geometricPrecision;text-rendering:geometricPrecision;image-rendering:optimizeQuality;fill-rule:evenodd;clip-rule:evenodd"><path style="opacity:1" fill="#fefefe" d="M-.5-.5h1012v1032H-.5V-.5Z"/><path style="opacity:1" fill="#c8c8c8" d="M889.5 480.5c-2.221 3.123-5.221 5.289-9 6.5-6 .667-12 .667-18 0-2.352-.24-4.352-1.073-6-2.5 1.165-61.499 1.332-123.165.5-185-50.667-29.333-101.333-58.667-152-88-.333 64.667-.667 129.333-1 194-19.645 11.234-39.145 22.567-58.5 34-6.009-.166-12.009.001-18 .5-.88 1.356-1.214 2.856-1 4.5h9c-13.333 8-26.667 16-40 24-1.933-2.096-4.267-3.596-7-4.5-9.333-.333-18.667-.667-28-1-2.742-1.886-4.409-4.386-5-7.5 6.37-3.179 12.37-6.846 18-11 7.674.166 15.341 0 23-.5 1.894-1.079 2.227-2.413 1-4-4.321-.499-8.654-.666-13-.5 29.355-17.433 58.855-34.766 88.5-52 .667-64.667.667-129.333 0-194-55.085-32.126-110.251-64.126-165.5-96-55.915 32.207-111.748 64.54-167.5 97-.667 64.333-.667 128.667 0 193 33.072 19.255 66.239 38.255 99.5 57v36c-16.143-9.574-32.476-18.908-49-28-.999 11.648-1.332 23.314-1 35-.996-15.491-1.33-31.158-1-47-1.322-.17-2.489.163-3.5 1-.497 2.31-.663 4.643-.5 7-2.667-1.333-5.333-2.667-8-4 1.126-1.358 1.126-2.692 0-4-2.921-.907-5.921-1.24-9-1-19.034-11.669-38.367-23.003-58-34-.833-64.331-1.333-128.664-1.5-193-49.836 29.253-99.836 58.253-150 87-.5 80.333-.667 160.666-.5 241h-31v-48c-5.526.321-10.86-.012-16-1h46v-4h-30v-19h-13c14.157-.996 28.49-1.329 43-1v-4h-30v-19c9.672.166 19.339 0 29-.5.88-1.356 1.214-2.856 1-4.5h-30c-.333-52.671 0-105.338 1-158 126.174-73.837 252.84-146.837 380-219 126.643 72.962 253.31 145.962 380 219 .667 66.499 1.333 132.832 2 199Z"/><path style="opacity:1" fill="#fefefe" d="M584.5 439.5c-7.674-.166-15.341 0-23 .5-2.525.424-4.525 1.59-6 3.5-4.461 3.925-6.128 8.925-5 15-4.425 2.879-9.092 5.213-14 7-1.256.039-2.256-.461-3-1.5-9.333-.333-18.667-.667-28-1-5.135-3.055-6.968-7.555-5.5-13.5 1.543-1.878 3.376-3.378 5.5-4.5 12-.333 24-.667 36-1 2.189-.677 2.522-1.844 1-3.5-13.377-1.424-26.71-1.258-40 .5-11.234 10.279-10.234 19.279 3 27 8.66.5 17.327.666 26 .5-7.772 5.729-16.106 10.729-25 15-8.563-4.774-16.896-9.774-25-15 1.699.16 3.366-.006 5-.5 1.333-1.333 1.333-2.667 0-4-5.323-.499-10.656-.666-16-.5-8.145-5.791-16.812-10.791-26-15v-4c14.004.167 28.004 0 42-.5.88-1.356 1.214-2.856 1-4.5-15.337-.167-30.67 0-46 .5-1.537 1.11-2.203 2.61-2 4.5-33.261-18.745-66.428-37.745-99.5-57-.667-64.333-.667-128.667 0-193 55.752-32.46 111.585-64.793 167.5-97 55.249 31.874 110.415 63.874 165.5 96 .667 64.667.667 129.333 0 194-29.645 17.234-59.145 34.567-88.5 52Z"/><path style="opacity:1" fill="#fefefe" d="M856.5 484.5c-2.376-1.226-3.876-3.226-4.5-6-.333-12.333-.667-24.667-1-37-1.356-.88-2.856-1.214-4.5-1-.167 12.671 0 25.338.5 38 .806 2.946 2.139 5.612 4 8 2.352 1.53 4.519 3.197 6.5 5v49h-141c-.961 1.765-1.295 3.765-1 6h142c.333 52.671 0 105.338-1 158l-150 87c-.667-64.667-1.333-129.333-2-194-22.963-13.134-45.796-26.467-68.5-40-.169-11.507-.669-22.841-1.5-34h-4c-.667 9.841-1.333 19.841-2 30-2.866-1.932-5.866-3.599-9-5 .326-8.517-.007-16.85-1-25-1.967-.239-3.801.094-5.5 1-1.912 5.599-4.078 10.932-6.5 16-3.36-1.68-6.693-3.347-10-5-1.59-3.598-3.09-7.264-4.5-11-1.699-.906-3.533-1.239-5.5-1-.951 1.419-1.284 3.085-1 5-3.585-1.961-7.251-3.628-11-5-.453-.958-1.119-1.792-2-2.5-11.662-6.162-22.996-12.829-34-20 4.667-2.667 9.333-5.333 14-8 10.841-.17 21.508-.67 32-1.5 8.496-.998 13.163-5.831 14-14.5-.301-3.097-1.301-5.93-3-8.5 13.333-8 26.667-16 40-24h29c4.689 3.488 6.189 8.155 4.5 14l-3.5 3.5c-12.506 1.117-25.006 1.95-37.5 2.5-.667 8.667-.667 17.333 0 26 1.356.88 2.856 1.214 4.5 1v-23c10.006.166 20.006 0 30-.5 11.023-4.21 14.19-11.71 9.5-22.5-1.039-1.21-2.206-2.21-3.5-3-1.473-.572-2.807-1.405-4-2.5-6.325-.5-12.658-.666-19-.5 19.355-11.433 38.855-22.766 58.5-34 .333-64.667.667-129.333 1-194 50.667 29.333 101.333 58.667 152 88 .832 61.835.665 123.501-.5 185ZM367.5 439.5c-12.338-.167-24.671 0-37 .5-1.333 1.333-1.333 2.667 0 4 7.326.5 14.659.666 22 .5v47c1.322.17 2.489-.163 3.5-1 .5-15.33.667-30.663.5-46h20c2.667 1.333 5.333 2.667 8 4-.324 14.245.01 28.412 1 42.5 15.663.5 31.33.667 47 .5.17-1.322-.163-2.489-1-3.5-13.996-.5-27.996-.667-42-.5-.332-11.686.001-23.352 1-35 16.524 9.092 32.857 18.426 49 28-.165 3.35.002 6.683.5 10 .383.556.883.889 1.5 1 12.818-1.547 24.151 1.953 34 10.5-13.694 7.845-27.361 15.678-41 23.5-14.001-6.332-22.668-1.998-26 13-4.047 4.54-9.047 7.873-15 10 3.274-8.144 6.941-16.144 11-24-1.506-1.247-3.006-1.247-4.5 0-2.473 6.279-5.473 12.279-9 18-3.09-5.848-5.923-11.848-8.5-18-1.921-1.141-3.921-1.308-6-.5 3.961 7.422 7.794 14.922 11.5 22.5.495 1.973.662 3.973.5 6-5.132 2.4-10.132 5.066-15 8-5.574-1.953-11.574-2.62-18-2v-14h15c.268-1.599-.066-2.932-1-4-4.47-.986-9.137-1.319-14-1v-12h17v-4h-22c-.996 13.156-1.329 26.49-1 40h18c-19.333 11.333-38.667 22.667-58 34-.667 64.333-1.333 128.667-2 193-49.803-28.402-99.469-57.069-149-86-1-52.662-1.333-105.329-1-158h142c.295-2.235-.039-4.235-1-6h-141c-.167-80.334 0-160.667.5-241 50.164-28.747 100.164-57.747 150-87 .167 64.336.667 128.669 1.5 193 19.633 10.997 38.966 22.331 58 34Z"/><path style="opacity:1" fill="#212121" d="M584.5 439.5c4.346-.166 8.679.001 13 .5 1.227 1.587.894 2.921-1 4-7.659.5-15.326.666-23 .5h-13c-1.874.026-3.54-.307-5-1 1.475-1.91 3.475-3.076 6-3.5 7.659-.5 15.326-.666 23-.5Z"/><path style="opacity:1" fill="#222" d="M645.5 439.5c6.342-.166 12.675 0 19 .5 1.193 1.095 2.527 1.928 4 2.5.131.739-.036 1.406-.5 2-1.285-.098-2.451-.098-3.5 0h-38c-.214-1.644.12-3.144 1-4.5 5.991-.499 11.991-.666 18-.5Z"/><path style="opacity:1" fill="#232323" d="M802.5 444.5c-1.549-.236-3.049-.236-4.5 0-.464-.594-.631-1.261-.5-2 1.382-1.301 3.048-2.134 5-2.5 12.329-.5 24.662-.667 37-.5.214 1.644-.12 3.144-1 4.5-11.995.5-23.995.667-36 .5Z"/><path style="opacity:1" fill="#fefffe" d="M126.5 444.5v19h-13v-19h13Z"/><path style="opacity:1" fill="#f6f6f6" d="M560.5 444.5h13c-5.63 4.154-11.63 7.821-18 11-1.41-4.861.257-8.528 5-11Z"/><path style="opacity:1" fill="#2a2a2a" d="M54.5 439.5c12.3378-.167 24.6712 0 37 .5 8.583 3.332 11.75 9.499 9.5 18.5-1.25 3.416-3.4167 6.083-6.5 8 6.033 4.578 8.699 10.744 8 18.5-.036 2.094-.369 4.094-1 6-1.284.684-2.4505.517-3.5-.5-.2272-5.397-.8938-10.731-2-16-1.1667-2.5-3-4.333-5.5-5.5-12-.333-24-.667-36-1-1.2111-1.113-1.2111-2.28 0-3.5 11.9861-.833 23.9861-1.333 36-1.5 6.9057-2.811 8.739-7.645 5.5-14.5-1.3189-1.987-3.1523-3.154-5.5-3.5-12-.333-24-.667-36-1-.9132-1.414-.9132-2.914 0-4.5Z"/><path style="opacity:1" fill="#232323" d="M126.5 439.5h30c.214 1.644-.12 3.144-1 4.5-9.661.5-19.328.666-29 .5h-13v19h43v4c-14.51-.329-28.843.004-43 1v19h43v4h-46c-.617-.111-1.117-.444-1.5-1-.667-16.333-.667-32.667 0-49l1.5-1.5c5.323-.499 10.656-.666 16-.5Z"/><path style="opacity:1" fill="#292929" d="M220.5 439.5c15.578-.324 31.078.009 46.5 1 .507 1.496.007 2.663-1.5 3.5-13.996.5-27.996.667-42 .5v19c14.004-.167 28.004 0 42 .5 2.457 1.154 2.457 2.488 0 4-13.996.5-27.996.667-42 .5v19c14.337-.167 28.671 0 43 .5 1.333 1 1.333 2 0 3-15.908.824-31.741.657-47.5-.5-.667-16.333-.667-32.667 0-49 .717-.544 1.217-1.211 1.5-2Z"/><path style="opacity:1" fill="#262626" d="M444.5 448.5v15h26c5.344-.166 10.677.001 16 .5 1.333 1.333 1.333 2.667 0 4-1.634.494-3.301.66-5 .5h-37v19h43v4h-46c-.617-.111-1.117-.444-1.5-1-.498-3.317-.665-6.65-.5-10v-36c-.203-1.89.463-3.39 2-4.5 15.33-.5 30.663-.667 46-.5.214 1.644-.12 3.144-1 4.5-13.996.5-27.996.667-42 .5v4Z"/><path style="opacity:1" fill="#2f2f2f" d="M668.5 442.5c1.294.79 2.461 1.79 3.5 3 4.69 10.79 1.523 18.29-9.5 22.5-9.994.5-19.994.666-30 .5v23c-1.644.214-3.144-.12-4.5-1-.667-8.667-.667-17.333 0-26 12.494-.55 24.994-1.383 37.5-2.5l3.5-3.5c1.689-5.845.189-10.512-4.5-14 1.049-.098 2.215-.098 3.5 0 .464-.594.631-1.261.5-2Z"/><path style="opacity:1" fill="#232323" d="M769.5 468.5c-9.486-.994-19.152-1.327-29-1v23c-1.042 1.291-2.208 1.291-3.5 0-.667-16.667-.667-33.333 0-50 12.424-1.155 24.924-1.321 37.5-.5 8.904 3.643 12.071 10.143 9.5 19.5-1.644 2.811-3.81 5.144-6.5 7 2.863 2.037 5.03 4.704 6.5 8 .499 5.657.666 11.324.5 17-1.322.17-2.489-.163-3.5-1-.307-5.382-.974-10.715-2-16-2.331-3.529-5.497-5.529-9.5-6Z"/><path style="opacity:1" fill="#fafafa" d="M740.5 444.5c11.005-.167 22.005 0 33 .5 7.127 3.442 8.627 8.609 4.5 15.5-1.419.96-2.919 1.793-4.5 2.5-10.995.5-21.995.667-33 .5v-19Z"/><path style="opacity:1" fill="#282828" d="M903.5 439.5c1.25.077 2.083.744 2.5 2 .5 16.663.667 33.33.5 50-1.644.214-3.144-.12-4.5-1-.167-8.333-.333-16.667-.5-25 .029-8.898.696-17.564 2-26Z"/><path style="opacity:1" fill="#c8c8c8" d="M444.5 448.5c9.188 4.209 17.855 9.209 26 15h-26v-15Z"/><path style="opacity:1" fill="#c7c7c7" d="M550.5 458.5c2.199 4.366 5.532 7.532 10 9.5 9 .333 18 .667 27 1 1.566.608 2.9 1.442 4 2.5-10.114 4.556-19.78 9.889-29 16h-12v4h34c-10.492.83-21.159 1.33-32 1.5-4.667 2.667-9.333 5.333-14 8 11.004 7.171 22.338 13.838 34 20 .881.708 1.547 1.542 2 2.5h-5v31c-7.859-4.182-15.693-8.515-23.5-13-.499 5.657-.666 11.324-.5 17-.995-11.488-1.328-23.155-1-35-1.419-.951-3.085-1.284-5-1v15c-10.639-5.988-21.306-11.988-32-18-2.358.654-4.025 1.987-5 4h-12v40c-.831-11.159-1.331-22.493-1.5-34-3.11 2.136-6.277 4.136-9.5 6 .317-4.202-.017-8.202-1-12h-4v22c-.665-1.869-1.331-3.869-2-6-1.896.775-3.563 1.775-5 3-3.726-5.773-7.226-11.773-10.5-18-1.699-.906-3.533-1.239-5.5-1-.994 9.486-1.327 19.152-1 29-4.667 2.333-9.333 4.667-14 7 4.056-4.504 5.722-9.838 5-16 .772-7.372-1.561-13.372-7-18 13.639-7.822 27.306-15.655 41-23.5-9.849-8.547-21.182-12.047-34-10.5h46v-4h-43v-19h37c8.104 5.226 16.437 10.226 25 15 8.894-4.271 17.228-9.271 25-15 7.718 3.799 9.052 9.299 4 16.5-1.892.973-3.892 1.64-6 2-11.333.333-22.667.667-34 1-1.227 1.587-.894 2.921 1 4 12 .667 24 .667 36 0 10.512-4.532 13.346-12.032 8.5-22.5-1.397-1.57-2.897-2.904-4.5-4 4.908-1.787 9.575-4.121 14-7Z"/><path style="opacity:1" fill="#292929" d="M165.5 439.5c1.25.077 2.083.744 2.5 2 .5 15.33.667 30.663.5 46 14.004-.167 28.004 0 42 .5 1.473.71 2.14 1.876 2 3.5-16.244.325-32.411-.009-48.5-1-.167-8.333-.333-16.667-.5-25 .029-8.898.696-17.564 2-26Z"/><path style="opacity:1" fill="#222" d="M275.5 439.5c2.556 1.043 4.723 2.71 6.5 5 12.214 12.727 24.214 25.727 36 39 .333-14.333.667-28.667 1-43 .718-.951 1.551-1.117 2.5-.5 1.158 16.759 1.325 33.593.5 50.5-1.049 1.017-2.216 1.184-3.5.5-12.799-14.468-25.966-28.634-39.5-42.5-.333 14-.667 28-1 42-1.011.837-2.178 1.17-3.5 1-.319-17.41.015-34.744 1-52Z"/><path style="opacity:1" fill="#252525" d="M367.5 439.5c3.079-.24 6.079.093 9 1 1.126 1.308 1.126 2.642 0 4h-20c.167 15.337 0 30.67-.5 46-1.011.837-2.178 1.17-3.5 1v-47c-7.341.166-14.674 0-22-.5-1.333-1.333-1.333-2.667 0-4 12.329-.5 24.662-.667 37-.5Z"/><path style="opacity:1" fill="#1e1e1e" d="M389.5 487.5c14.004-.167 28.004 0 42 .5.837 1.011 1.17 2.178 1 3.5-15.67.167-31.337 0-47-.5-.99-14.088-1.324-28.255-1-42.5-.163-2.357.003-4.69.5-7 1.011-.837 2.178-1.17 3.5-1-.33 15.842.004 31.509 1 47Z"/><path style="opacity:1" fill="#2d2d2d" d="M536.5 465.5c1.603 1.096 3.103 2.43 4.5 4 4.846 10.468 2.012 17.968-8.5 22.5-12 .667-24 .667-36 0-1.894-1.079-2.227-2.413-1-4 11.333-.333 22.667-.667 34-1 2.108-.36 4.108-1.027 6-2 5.052-7.201 3.718-12.701-4-16.5-8.673.166-17.34 0-26-.5-13.234-7.721-14.234-16.721-3-27 13.29-1.758 26.623-1.924 40-.5 1.522 1.656 1.189 2.823-1 3.5-12 .333-24 .667-36 1-2.124 1.122-3.957 2.622-5.5 4.5-1.468 5.945.365 10.445 5.5 13.5 9.333.333 18.667.667 28 1 .744 1.039 1.744 1.539 3 1.5Z"/><path style="opacity:1" fill="#252525" d="M555.5 443.5c1.46.693 3.126 1.026 5 1-4.743 2.472-6.41 6.139-5 11 .591 3.114 2.258 5.614 5 7.5 9.333.333 18.667.667 28 1 2.733.904 5.067 2.404 7 4.5 1.699 2.57 2.699 5.403 3 8.5-.837 8.669-5.504 13.502-14 14.5h-34v-4h12c9.082.414 18.082-.086 27-1.5 4.496-4.297 5.163-9.13 2-14.5-1.1-1.058-2.434-1.892-4-2.5-9-.333-18-.667-27-1-4.468-1.968-7.801-5.134-10-9.5-1.128-6.075.539-11.075 5-15Z"/><path style="opacity:1" fill="#212121" d="M682.5 439.5c.996-.086 1.829.248 2.5 1 .075 13.389.742 26.722 2 40 1.167 2.5 3 4.333 5.5 5.5 8.675 1.962 17.342 1.962 26 0 2.5-1.167 4.333-3 5.5-5.5 1.278-13.264 1.945-26.598 2-40 1-1.333 2-1.333 3 0 .667 13 .667 26 0 39-1.769 5.435-5.269 9.268-10.5 11.5-8.333.667-16.667.667-25 0-5.41-1.743-9.244-5.243-11.5-10.5-.814-13.742-.647-27.408.5-41Z"/><path style="opacity:1" fill="#888" d="M769.5 468.5h-28c.325 7.519-.008 14.852-1 22v-23c9.848-.327 19.514.006 29 1Z"/><path style="opacity:1" fill="#262626" d="M797.5 442.5c-.131.739.036 1.406.5 2 1.451-.236 2.951-.236 4.5 0-5.649 2.916-7.482 7.583-5.5 14 1.167 1.833 2.667 3.333 4.5 4.5 9.667.333 19.333.667 29 1 9.328 5.376 11.494 12.876 6.5 22.5-1.558 1.859-3.391 3.359-5.5 4.5-13 .667-26 .667-39 0-1.333-1-1.333-2 0-3 11.667-.333 23.333-.667 35-1 7.026-1.878 9.526-6.378 7.5-13.5l-4.5-4.5c-10.406-.073-20.739-.74-31-2-9.731-7.631-10.397-15.797-2-24.5Z"/><path style="opacity:1" fill="#2f2f2f" d="M888.5 489.5c-10.107 3.197-20.441 3.863-31 2-1.981-1.803-4.148-3.47-6.5-5-1.861-2.388-3.194-5.054-4-8-.5-12.662-.667-25.329-.5-38 1.644-.214 3.144.12 4.5 1 .333 12.333.667 24.667 1 37 .624 2.774 2.124 4.774 4.5 6 1.648 1.427 3.648 2.26 6 2.5 6 .667 12 .667 18 0 3.779-1.211 6.779-3.377 9-6.5.65-13.271 1.316-26.605 2-40 1.656-1.522 2.823-1.189 3.5 1 .667 12.667.667 25.333 0 38-2.022 3.503-4.189 6.837-6.5 10Z"/><path style="opacity:1" fill="#252525" d="M914.5 439.5c15.337-.167 30.67 0 46 .5 1.227 1.587.894 2.921-1 4-6.325.5-12.658.666-19 .5.167 15.337 0 30.67-.5 46-1.011.837-2.178 1.17-3.5 1v-47c-7.341.166-14.674 0-22-.5-1.228-1.49-1.228-2.99 0-4.5Z"/><path style="opacity:1" fill="#fefffe" d="M113.5 468.5h13v19h-13v-19Z"/><path style="opacity:1" fill="#fcfcfc" d="M591.5 471.5c3.163 5.37 2.496 10.203-2 14.5-8.918 1.414-17.918 1.914-27 1.5 9.22-6.111 18.886-11.444 29-16Z"/><path style="opacity:1" fill="#c9c9c9" d="M888.5 489.5v51h-31v-49c10.559 1.863 20.893 1.197 31-2Z"/><path style="opacity:1" fill="#fefefe" d="M539.5 537.5c-.326 8.517.007 16.85 1 25 7.148.992 14.481 1.325 22 1v-5h-17c-.166-5.676.001-11.343.5-17 7.807 4.485 15.641 8.818 23.5 13v9h5v-5c33.261 18.745 66.428 37.745 99.5 57 .833 64.669.667 129.336-.5 194-55.629 31.8-111.129 63.8-166.5 96-55.371-32.2-110.871-64.2-166.5-96-1.167-64.664-1.333-129.331-.5-194 26.256-15.546 52.756-30.713 79.5-45.5 3.359-1.487 6.025-3.654 8-6.5 3.396-.384 6.396-1.718 9-4 4.667-2.333 9.333-4.667 14-7v11c1.915.284 3.581-.049 5-1v-14c2.693-1.052 5.36-2.052 8-3 3.571 5.467 6.904 11.133 10 17 1.765.961 3.765 1.295 6 1v-28c3.223-1.864 6.39-3.864 9.5-6 .169 11.507.669 22.841 1.5 34 24.34 1.336 32.84-9.664 25.5-33-3.606-4.053-8.106-6.386-13.5-7 .975-2.013 2.642-3.346 5-4 10.694 6.012 21.361 12.012 32 18Z"/><path style="opacity:1" fill="#4b4b4b" d="M451.5 523.5v39h4c-1.419.951-3.085 1.284-5 1v-11c-.327-9.848.006-19.514 1-29Z"/><path style="opacity:1" fill="#202020" d="M350.5 523.5h22v4h-17c-.985 4.134-1.318 8.468-1 13h15v3h-15c-.321 5.195.013 10.195 1 15 6.426-.62 12.426.047 18 2v2h-23v-39Z"/><path style="opacity:1" fill="#222" d="M393.5 548.5v15h-5v-11c.162-2.027-.005-4.027-.5-6-3.706-7.578-7.539-15.078-11.5-22.5 2.079-.808 4.079-.641 6 .5 2.577 6.152 5.41 12.152 8.5 18 3.527-5.721 6.527-11.721 9-18 1.494-1.247 2.994-1.247 4.5 0-4.059 7.856-7.726 15.856-11 24Z"/><path style="opacity:1" fill="#1f1f1f" d="M574.5 523.5v40h-5v-40h5Z"/><path style="opacity:1" fill="#222" d="M683.5 522.5c4.621-.507 8.954.326 13 2.5 2.348 1.688 2.515 3.522.5 5.5-5.093-3.575-10.427-3.908-16-1-.93 3.35-.097 6.183 2.5 8.5 4.418 1.806 8.751 3.806 13 6 6.03 7.425 5.03 13.759-3 19-7.567 1.713-14.234.047-20-5 .854-1.022 1.854-1.855 3-2.5 6.016 4.747 12.183 5.08 18.5 1 .667-2.333.667-4.667 0-7-4.894-3.2-10.061-6.033-15.5-8.5-4.113-3.509-4.946-7.676-2.5-12.5 1.494-2.814 3.66-4.814 6.5-6Z"/><path style="opacity:1" fill="#545454" d="M350.5 523.5v39h23c-1.765.961-3.765 1.295-6 1h-18c-.329-13.51.004-26.844 1-40Z"/><path style="opacity:1" fill="#535353" d="M478.5 523.5c.983 3.798 1.317 7.798 1 12v28c-2.235.295-4.235-.039-6-1h5v-39Z"/><path style="opacity:1" fill="#8a8a8a" d="M355.5 527.5v12c4.863-.319 9.53.014 14 1h-15c-.318-4.532.015-8.866 1-13Z"/><path style="opacity:1" fill="#373737" d="M126.5 540.5h172v1h-219v4c-.9511-1.419-1.2845-3.085-1-5h48ZM716.5 541.5v-1h220c.284 1.915-.049 3.581-1 5v-4h-219Z"/><path style="opacity:1" fill="#202020" d="M298.5 541.5v4h-219v-4h219ZM716.5 541.5h219v4h-219v-4Z"/><path style="opacity:1" fill="#6b6b6b" d="M369.5 540.5c.934 1.068 1.268 2.401 1 4h-15v14c-.987-4.805-1.321-9.805-1-15h15v-3Z"/><path style="opacity:1" fill="#dfdfdf" d="M298.5 540.5c.961 1.765 1.295 3.765 1 6h-142v-1h141v-5Z"/><path style="opacity:1" fill="#232323" d="M314.5 523.5c6.009-.166 12.009.001 18 .5 5.661 1.82 7.828 5.653 6.5 11.5-1.5 2.833-3.667 5-6.5 6.5 8.771 2.042 11.271 7.209 7.5 15.5-1.543 1.878-3.376 3.378-5.5 4.5-6.603 1.274-13.27 1.774-20 1.5v-40Z"/><path style="opacity:1" fill="#fafafa" d="M329.5 544.5c6.604.834 8.771 4.501 6.5 11-.903 1.201-2.069 2.035-3.5 2.5-3.158.554-6.325 1.054-9.5 1.5-1.385-.014-2.551-.348-3.5-1v-14h10Z"/><path style="opacity:1" fill="#7d7d7d" d="M327.5 527.5h-8v12c-.985-4.134-1.318-8.468-1-13 3.213-.31 6.213.023 9 1Z"/><path style="opacity:1" fill="#f8f8f8" d="M327.5 527.5c6.505.521 8.505 3.855 6 10-1.165 1.084-2.498 1.917-4 2.5-3.527.808-6.86.641-10-.5v-12h8Z"/><path style="opacity:1" fill="#262626" d="M434.5 525.5c5.439 4.628 7.772 10.628 7 18 .722 6.162-.944 11.496-5 16-2.604 2.282-5.604 3.616-9 4-9.423 1.084-15.59-2.916-18.5-12-.499-4.321-.666-8.654-.5-13 3.332-14.998 11.999-19.332 26-13Z"/><path style="opacity:1" fill="#c4c4c4" d="M428.5 527.5c6.248 3.347 8.915 8.68 8 16 .182 5.678-1.818 10.512-6 14.5-8.202 2.648-13.702-.185-16.5-8.5-.815-4.852-.648-9.519.5-14 1.221.965 2.554.798 4-.5 4.008-1.812 7.341-4.312 10-7.5Z"/><path style="opacity:1" fill="#ededed" d="M428.5 527.5c-2.659 3.188-5.992 5.688-10 7.5-1.446 1.298-2.779 1.465-4 .5.985-3.83 3.319-6.663 7-8.5 2.429-.703 4.762-.537 7 .5Z"/><path style="opacity:1" fill="#242424" d="M451.5 523.5c1.967-.239 3.801.094 5.5 1 3.274 6.227 6.774 12.227 10.5 18l6.5 13c.498-3.317.665-6.65.5-10v-22h4v39h-5c-3.096-5.867-6.429-11.533-10-17-2.742-4.481-5.242-9.147-7.5-14-.499 5.657-.666 11.324-.5 17v14h-4v-39Z"/><path style="opacity:1" fill="#c2c2c2" d="M463.5 545.5c-2.64.948-5.307 1.948-8 3-.166-5.676.001-11.343.5-17 2.258 4.853 4.758 9.519 7.5 14Z"/><path style="opacity:1" fill="#232323" d="M502.5 523.5c5.394.614 9.894 2.947 13.5 7 7.34 23.336-1.16 34.336-25.5 33v-40h12Z"/><path style="opacity:1" fill="#5c5c5c" d="M495.5 527.5v31h8c-2.787.977-5.787 1.31-9 1-.328-10.846.006-21.513 1-32Z"/><path style="opacity:1" fill="#fbfbfb" d="M495.5 527.5c8.503-1.834 14.337 1.166 17.5 9 .667 4.667.667 9.333 0 14-1.495 4.662-4.661 7.328-9.5 8h-8v-31Z"/><path style="opacity:1" fill="#262626" d="M544.5 523.5c-.328 11.845.005 23.512 1 35h17v5c-7.519.325-14.852-.008-22-1v-39h4Z"/><path style="opacity:1" fill="#1e1e1e" d="M642.5 523.5h29v4h-12v36h-5v-36h-12v-4Z"/><path style="opacity:1" fill="#dfdfdf" d="M716.5 540.5v5h141v1h-142c-.295-2.235.039-4.235 1-6Z"/><path style="opacity:1" fill="#888" d="M329.5 544.5h-10v14c-.987-4.805-1.321-9.805-1-15 3.871-.315 7.538.018 11 1Z"/><path style="opacity:1" fill="#838383" d="M544.5 523.5h-4v39c-.993-8.15-1.326-16.483-1-25v-15c1.915-.284 3.581.049 5 1Z"/><path style="opacity:1" fill="#c9c9c9" d="M574.5 523.5c3.749 1.372 7.415 3.039 11 5v35h5c-.327-10.181.006-20.181 1-30 3.007 8.677 6.007 17.344 9 26h4c2.848-9.377 6.015-18.71 9.5-28 .499 4.655.666 9.321.5 14-.99 5.81-1.323 11.81-1 18h6v-15c3.134 1.401 6.134 3.068 9 5 .667-10.159 1.333-20.159 2-30v40h4v-40c.831 11.159 1.331 22.493 1.5 34 22.704 13.533 45.537 26.866 68.5 40 .667 64.667 1.333 129.333 2 194l150-87c1-52.662 1.333-105.329 1-158v-1h31c.167 58.668 0 117.334-.5 176-126.588 73.712-253.421 147.046-380.5 220-127.079-72.954-253.912-146.288-380.5-220-.5-58.666-.667-117.332-.5-176h31v1c-.333 52.671 0 105.338 1 158 49.531 28.931 99.197 57.598 149 86 .06.543.393.876 1 1 1-64.663 1.333-129.33 1-194 19.333-11.333 38.667-22.667 58-34 2.235.295 4.235-.039 6-1v-2c4.868-2.934 9.868-5.6 15-8v11h5v-15c5.953-2.127 10.953-5.46 15-10-.166 4.346.001 8.679.5 13 2.91 9.084 9.077 13.084 18.5 12-1.975 2.846-4.641 5.013-8 6.5-26.744 14.787-53.244 29.954-79.5 45.5-.833 64.669-.667 129.336.5 194 55.629 31.8 111.129 63.8 166.5 96 55.371-32.2 110.871-64.2 166.5-96 1.167-64.664 1.333-129.331.5-194-33.072-19.255-66.239-38.255-99.5-57v-35Z"/><path style="opacity:1" fill="#7a7a7a" d="M618.5 523.5c.993 8.15 1.326 16.483 1 25v15h-6c-.323-6.19.01-12.19 1-18v17h4v-39Z"/><path style="opacity:1" fill="#4b4b4b" d="M586.5 523.5v39h3c-.167-11.005 0-22.005.5-33 .41 1.401.91 2.734 1.5 4-.994 9.819-1.327 19.819-1 30h-5v-35c-.284-1.915.049-3.581 1-5Z"/><path style="opacity:1" fill="#202020" d="M630.5 523.5h4v40h-4v-40Z"/><path style="opacity:1" fill="#f8f8f8" d="M474.5 545.5c.165 3.35-.002 6.683-.5 10l-6.5-13c1.437-1.225 3.104-2.225 5-3 .669 2.131 1.335 4.131 2 6Z"/><path style="opacity:1" fill="#242424" d="M586.5 523.5c1.967-.239 3.801.094 5.5 1 1.41 3.736 2.91 7.402 4.5 11 1.598 5.792 3.598 11.459 6 17 1.141-4.091 2.475-8.091 4-12 2.422-5.068 4.588-10.401 6.5-16 1.699-.906 3.533-1.239 5.5-1v39h-4v-17c.166-4.679-.001-9.345-.5-14-3.485 9.29-6.652 18.623-9.5 28h-4c-2.993-8.656-5.993-17.323-9-26-.59-1.266-1.09-2.599-1.5-4-.5 10.995-.667 21.995-.5 33h-3v-39Z"/><path style="opacity:1" fill="#bfbfbf" d="M596.5 535.5c3.307 1.653 6.64 3.32 10 5-1.525 3.909-2.859 7.909-4 12-2.402-5.541-4.402-11.208-6-17Z"/><path style="opacity:1" fill="#e1e1e1" d="M309.5 597.5c.333 64.67 0 129.337-1 194-.607-.124-.94-.457-1-1 .667-64.333 1.333-128.667 2-193Z"/></svg>