<?xml version="1.0" encoding="UTF-8"?>
<!DOCTYPE svg PUBLIC "-//W3C//DTD SVG 1.1//EN" "http://www.w3.org/Graphics/SVG/1.1/DTD/svg11.dtd">
<svg xmlns="http://www.w3.org/2000/svg" version="1.1" width="1012px" height="1032px" style="shape-rendering:geometricPrecision; text-rendering:geometricPrecision; image-rendering:optimizeQuality; fill-rule:evenodd; clip-rule:evenodd" xmlns:xlink="http://www.w3.org/1999/xlink">
<g><path style="opacity:1" fill="#fefefe" d="M -0.5,-0.5 C 336.833,-0.5 674.167,-0.5 1011.5,-0.5C 1011.5,343.5 1011.5,687.5 1011.5,1031.5C 674.167,1031.5 336.833,1031.5 -0.5,1031.5C -0.5,687.5 -0.5,343.5 -0.5,-0.5 Z"/></g>
<g><path style="opacity:1" fill="#c8c8c8" d="M 889.5,480.5 C 887.279,483.623 884.279,485.789 880.5,487C 874.5,487.667 868.5,487.667 862.5,487C 860.148,486.76 858.148,485.927 856.5,484.5C 857.665,423.001 857.832,361.335 857,299.5C 806.333,270.167 755.667,240.833 705,211.5C 704.667,276.167 704.333,340.833 704,405.5C 684.355,416.734 664.855,428.067 645.5,439.5C 639.491,439.334 633.491,439.501 627.5,440C 626.62,441.356 626.286,442.856 626.5,444.5C 629.5,444.5 632.5,444.5 635.5,444.5C 622.167,452.5 608.833,460.5 595.5,468.5C 593.567,466.404 591.233,464.904 588.5,464C 579.167,463.667 569.833,463.333 560.5,463C 557.758,461.114 556.091,458.614 555.5,455.5C 561.87,452.321 567.87,448.654 573.5,444.5C 581.174,444.666 588.841,444.5 596.5,444C 598.394,442.921 598.727,441.587 597.5,440C 593.179,439.501 588.846,439.334 584.5,439.5C 613.855,422.067 643.355,404.734 673,387.5C 673.667,322.833 673.667,258.167 673,193.5C 617.915,161.374 562.749,129.374 507.5,97.5C 451.585,129.707 395.752,162.04 340,194.5C 339.333,258.833 339.333,323.167 340,387.5C 373.072,406.755 406.239,425.755 439.5,444.5C 439.5,456.5 439.5,468.5 439.5,480.5C 423.357,470.926 407.024,461.592 390.5,452.5C 389.501,464.148 389.168,475.814 389.5,487.5C 388.504,472.009 388.17,456.342 388.5,440.5C 387.178,440.33 386.011,440.663 385,441.5C 384.503,443.81 384.337,446.143 384.5,448.5C 381.833,447.167 379.167,445.833 376.5,444.5C 377.626,443.142 377.626,441.808 376.5,440.5C 373.579,439.593 370.579,439.26 367.5,439.5C 348.466,427.831 329.133,416.497 309.5,405.5C 308.667,341.169 308.167,276.836 308,212.5C 258.164,241.753 208.164,270.753 158,299.5C 157.5,379.833 157.333,460.166 157.5,540.5C 147.167,540.5 136.833,540.5 126.5,540.5C 126.5,524.5 126.5,508.5 126.5,492.5C 120.974,492.821 115.64,492.488 110.5,491.5C 125.833,491.5 141.167,491.5 156.5,491.5C 156.5,490.167 156.5,488.833 156.5,487.5C 146.5,487.5 136.5,487.5 126.5,487.5C 126.5,481.167 126.5,474.833 126.5,468.5C 122.167,468.5 117.833,468.5 113.5,468.5C 127.657,467.504 141.99,467.171 156.5,467.5C 156.5,466.167 156.5,464.833 156.5,463.5C 146.5,463.5 136.5,463.5 126.5,463.5C 126.5,457.167 126.5,450.833 126.5,444.5C 136.172,444.666 145.839,444.5 155.5,444C 156.38,442.644 156.714,441.144 156.5,439.5C 146.5,439.5 136.5,439.5 126.5,439.5C 126.167,386.829 126.5,334.162 127.5,281.5C 253.674,207.663 380.34,134.663 507.5,62.5C 634.143,135.462 760.81,208.462 887.5,281.5C 888.167,347.999 888.833,414.332 889.5,480.5 Z"/></g>
<g><path style="opacity:1" fill="#fefefe" d="M 584.5,439.5 C 576.826,439.334 569.159,439.5 561.5,440C 558.975,440.424 556.975,441.59 555.5,443.5C 551.039,447.425 549.372,452.425 550.5,458.5C 546.075,461.379 541.408,463.713 536.5,465.5C 535.244,465.539 534.244,465.039 533.5,464C 524.167,463.667 514.833,463.333 505.5,463C 500.365,459.945 498.532,455.445 500,449.5C 501.543,447.622 503.376,446.122 505.5,445C 517.5,444.667 529.5,444.333 541.5,444C 543.689,443.323 544.022,442.156 542.5,440.5C 529.123,439.076 515.79,439.242 502.5,441C 491.266,451.279 492.266,460.279 505.5,468C 514.16,468.5 522.827,468.666 531.5,468.5C 523.728,474.229 515.394,479.229 506.5,483.5C 497.937,478.726 489.604,473.726 481.5,468.5C 483.199,468.66 484.866,468.494 486.5,468C 487.833,466.667 487.833,465.333 486.5,464C 481.177,463.501 475.844,463.334 470.5,463.5C 462.355,457.709 453.688,452.709 444.5,448.5C 444.5,447.167 444.5,445.833 444.5,444.5C 458.504,444.667 472.504,444.5 486.5,444C 487.38,442.644 487.714,441.144 487.5,439.5C 472.163,439.333 456.83,439.5 441.5,440C 439.963,441.11 439.297,442.61 439.5,444.5C 406.239,425.755 373.072,406.755 340,387.5C 339.333,323.167 339.333,258.833 340,194.5C 395.752,162.04 451.585,129.707 507.5,97.5C 562.749,129.374 617.915,161.374 673,193.5C 673.667,258.167 673.667,322.833 673,387.5C 643.355,404.734 613.855,422.067 584.5,439.5 Z"/></g>
<g><path style="opacity:1" fill="#fefefe" d="M 856.5,484.5 C 854.124,483.274 852.624,481.274 852,478.5C 851.667,466.167 851.333,453.833 851,441.5C 849.644,440.62 848.144,440.286 846.5,440.5C 846.333,453.171 846.5,465.838 847,478.5C 847.806,481.446 849.139,484.112 851,486.5C 853.352,488.03 855.519,489.697 857.5,491.5C 857.5,507.833 857.5,524.167 857.5,540.5C 810.5,540.5 763.5,540.5 716.5,540.5C 715.539,542.265 715.205,544.265 715.5,546.5C 762.833,546.5 810.167,546.5 857.5,546.5C 857.833,599.171 857.5,651.838 856.5,704.5C 806.5,733.5 756.5,762.5 706.5,791.5C 705.833,726.833 705.167,662.167 704.5,597.5C 681.537,584.366 658.704,571.033 636,557.5C 635.831,545.993 635.331,534.659 634.5,523.5C 633.167,523.5 631.833,523.5 630.5,523.5C 629.833,533.341 629.167,543.341 628.5,553.5C 625.634,551.568 622.634,549.901 619.5,548.5C 619.826,539.983 619.493,531.65 618.5,523.5C 616.533,523.261 614.699,523.594 613,524.5C 611.088,530.099 608.922,535.432 606.5,540.5C 603.14,538.82 599.807,537.153 596.5,535.5C 594.91,531.902 593.41,528.236 592,524.5C 590.301,523.594 588.467,523.261 586.5,523.5C 585.549,524.919 585.216,526.585 585.5,528.5C 581.915,526.539 578.249,524.872 574.5,523.5C 574.047,522.542 573.381,521.708 572.5,521C 560.838,514.838 549.504,508.171 538.5,501C 543.167,498.333 547.833,495.667 552.5,493C 563.341,492.83 574.008,492.33 584.5,491.5C 592.996,490.502 597.663,485.669 598.5,477C 598.199,473.903 597.199,471.07 595.5,468.5C 608.833,460.5 622.167,452.5 635.5,444.5C 645.167,444.5 654.833,444.5 664.5,444.5C 669.189,447.988 670.689,452.655 669,458.5C 667.833,459.667 666.667,460.833 665.5,462C 652.994,463.117 640.494,463.95 628,464.5C 627.333,473.167 627.333,481.833 628,490.5C 629.356,491.38 630.856,491.714 632.5,491.5C 632.5,483.833 632.5,476.167 632.5,468.5C 642.506,468.666 652.506,468.5 662.5,468C 673.523,463.79 676.69,456.29 672,445.5C 670.961,444.29 669.794,443.29 668.5,442.5C 667.027,441.928 665.693,441.095 664.5,440C 658.175,439.5 651.842,439.334 645.5,439.5C 664.855,428.067 684.355,416.734 704,405.5C 704.333,340.833 704.667,276.167 705,211.5C 755.667,240.833 806.333,270.167 857,299.5C 857.832,361.335 857.665,423.001 856.5,484.5 Z"/></g>
<g><path style="opacity:1" fill="#fefefe" d="M 367.5,439.5 C 355.162,439.333 342.829,439.5 330.5,440C 329.167,441.333 329.167,442.667 330.5,444C 337.826,444.5 345.159,444.666 352.5,444.5C 352.5,460.167 352.5,475.833 352.5,491.5C 353.822,491.67 354.989,491.337 356,490.5C 356.5,475.17 356.667,459.837 356.5,444.5C 363.167,444.5 369.833,444.5 376.5,444.5C 379.167,445.833 381.833,447.167 384.5,448.5C 384.176,462.745 384.51,476.912 385.5,491C 401.163,491.5 416.83,491.667 432.5,491.5C 432.67,490.178 432.337,489.011 431.5,488C 417.504,487.5 403.504,487.333 389.5,487.5C 389.168,475.814 389.501,464.148 390.5,452.5C 407.024,461.592 423.357,470.926 439.5,480.5C 439.335,483.85 439.502,487.183 440,490.5C 440.383,491.056 440.883,491.389 441.5,491.5C 454.318,489.953 465.651,493.453 475.5,502C 461.806,509.845 448.139,517.678 434.5,525.5C 420.499,519.168 411.832,523.502 408.5,538.5C 404.453,543.04 399.453,546.373 393.5,548.5C 396.774,540.356 400.441,532.356 404.5,524.5C 402.994,523.253 401.494,523.253 400,524.5C 397.527,530.779 394.527,536.779 391,542.5C 387.91,536.652 385.077,530.652 382.5,524.5C 380.579,523.359 378.579,523.192 376.5,524C 380.461,531.422 384.294,538.922 388,546.5C 388.495,548.473 388.662,550.473 388.5,552.5C 383.368,554.9 378.368,557.566 373.5,560.5C 367.926,558.547 361.926,557.88 355.5,558.5C 355.5,553.833 355.5,549.167 355.5,544.5C 360.5,544.5 365.5,544.5 370.5,544.5C 370.768,542.901 370.434,541.568 369.5,540.5C 365.03,539.514 360.363,539.181 355.5,539.5C 355.5,535.5 355.5,531.5 355.5,527.5C 361.167,527.5 366.833,527.5 372.5,527.5C 372.5,526.167 372.5,524.833 372.5,523.5C 365.167,523.5 357.833,523.5 350.5,523.5C 349.504,536.656 349.171,549.99 349.5,563.5C 355.5,563.5 361.5,563.5 367.5,563.5C 348.167,574.833 328.833,586.167 309.5,597.5C 308.833,661.833 308.167,726.167 307.5,790.5C 257.697,762.098 208.031,733.431 158.5,704.5C 157.5,651.838 157.167,599.171 157.5,546.5C 204.833,546.5 252.167,546.5 299.5,546.5C 299.795,544.265 299.461,542.265 298.5,540.5C 251.5,540.5 204.5,540.5 157.5,540.5C 157.333,460.166 157.5,379.833 158,299.5C 208.164,270.753 258.164,241.753 308,212.5C 308.167,276.836 308.667,341.169 309.5,405.5C 329.133,416.497 348.466,427.831 367.5,439.5 Z"/></g>
<g><path style="opacity:1" fill="#212121" d="M 584.5,439.5 C 588.846,439.334 593.179,439.501 597.5,440C 598.727,441.587 598.394,442.921 596.5,444C 588.841,444.5 581.174,444.666 573.5,444.5C 569.167,444.5 564.833,444.5 560.5,444.5C 558.626,444.526 556.96,444.193 555.5,443.5C 556.975,441.59 558.975,440.424 561.5,440C 569.159,439.5 576.826,439.334 584.5,439.5 Z"/></g>
<g><path style="opacity:1" fill="#222222" d="M 645.5,439.5 C 651.842,439.334 658.175,439.5 664.5,440C 665.693,441.095 667.027,441.928 668.5,442.5C 668.631,443.239 668.464,443.906 668,444.5C 666.715,444.402 665.549,444.402 664.5,444.5C 654.833,444.5 645.167,444.5 635.5,444.5C 632.5,444.5 629.5,444.5 626.5,444.5C 626.286,442.856 626.62,441.356 627.5,440C 633.491,439.501 639.491,439.334 645.5,439.5 Z"/></g>
<g><path style="opacity:1" fill="#232323" d="M 802.5,444.5 C 800.951,444.264 799.451,444.264 798,444.5C 797.536,443.906 797.369,443.239 797.5,442.5C 798.882,441.199 800.548,440.366 802.5,440C 814.829,439.5 827.162,439.333 839.5,439.5C 839.714,441.144 839.38,442.644 838.5,444C 826.505,444.5 814.505,444.667 802.5,444.5 Z"/></g>
<g><path style="opacity:1" fill="#fefffe" d="M 126.5,444.5 C 126.5,450.833 126.5,457.167 126.5,463.5C 122.167,463.5 117.833,463.5 113.5,463.5C 113.5,457.167 113.5,450.833 113.5,444.5C 117.833,444.5 122.167,444.5 126.5,444.5 Z"/></g>
<g><path style="opacity:1" fill="#f6f6f6" d="M 560.5,444.5 C 564.833,444.5 569.167,444.5 573.5,444.5C 567.87,448.654 561.87,452.321 555.5,455.5C 554.09,450.639 555.757,446.972 560.5,444.5 Z"/></g>
<g><path style="opacity:1" fill="#2a2a2a" d="M 54.5,439.5 C 66.8378,439.333 79.1712,439.5 91.5,440C 100.083,443.332 103.25,449.499 101,458.5C 99.75,461.916 97.5833,464.583 94.5,466.5C 100.533,471.078 103.199,477.244 102.5,485C 102.464,487.094 102.131,489.094 101.5,491C 100.216,491.684 99.0495,491.517 98,490.5C 97.7728,485.103 97.1062,479.769 96,474.5C 94.8333,472 93,470.167 90.5,469C 78.5,468.667 66.5,468.333 54.5,468C 53.2889,466.887 53.2889,465.72 54.5,464.5C 66.4861,463.667 78.4861,463.167 90.5,463C 97.4057,460.189 99.239,455.355 96,448.5C 94.6811,446.513 92.8477,445.346 90.5,445C 78.5,444.667 66.5,444.333 54.5,444C 53.5868,442.586 53.5868,441.086 54.5,439.5 Z"/></g>
<g><path style="opacity:1" fill="#232323" d="M 126.5,439.5 C 136.5,439.5 146.5,439.5 156.5,439.5C 156.714,441.144 156.38,442.644 155.5,444C 145.839,444.5 136.172,444.666 126.5,444.5C 122.167,444.5 117.833,444.5 113.5,444.5C 113.5,450.833 113.5,457.167 113.5,463.5C 117.833,463.5 122.167,463.5 126.5,463.5C 136.5,463.5 146.5,463.5 156.5,463.5C 156.5,464.833 156.5,466.167 156.5,467.5C 141.99,467.171 127.657,467.504 113.5,468.5C 113.5,474.833 113.5,481.167 113.5,487.5C 117.833,487.5 122.167,487.5 126.5,487.5C 136.5,487.5 146.5,487.5 156.5,487.5C 156.5,488.833 156.5,490.167 156.5,491.5C 141.167,491.5 125.833,491.5 110.5,491.5C 109.883,491.389 109.383,491.056 109,490.5C 108.333,474.167 108.333,457.833 109,441.5C 109.5,441 110,440.5 110.5,440C 115.823,439.501 121.156,439.334 126.5,439.5 Z"/></g>
<g><path style="opacity:1" fill="#292929" d="M 220.5,439.5 C 236.078,439.176 251.578,439.509 267,440.5C 267.507,441.996 267.007,443.163 265.5,444C 251.504,444.5 237.504,444.667 223.5,444.5C 223.5,450.833 223.5,457.167 223.5,463.5C 237.504,463.333 251.504,463.5 265.5,464C 267.957,465.154 267.957,466.488 265.5,468C 251.504,468.5 237.504,468.667 223.5,468.5C 223.5,474.833 223.5,481.167 223.5,487.5C 237.837,487.333 252.171,487.5 266.5,488C 267.833,489 267.833,490 266.5,491C 250.592,491.824 234.759,491.657 219,490.5C 218.333,474.167 218.333,457.833 219,441.5C 219.717,440.956 220.217,440.289 220.5,439.5 Z"/></g>
<g><path style="opacity:1" fill="#262626" d="M 444.5,448.5 C 444.5,453.5 444.5,458.5 444.5,463.5C 453.167,463.5 461.833,463.5 470.5,463.5C 475.844,463.334 481.177,463.501 486.5,464C 487.833,465.333 487.833,466.667 486.5,468C 484.866,468.494 483.199,468.66 481.5,468.5C 469.167,468.5 456.833,468.5 444.5,468.5C 444.5,474.833 444.5,481.167 444.5,487.5C 458.833,487.5 473.167,487.5 487.5,487.5C 487.5,488.833 487.5,490.167 487.5,491.5C 472.167,491.5 456.833,491.5 441.5,491.5C 440.883,491.389 440.383,491.056 440,490.5C 439.502,487.183 439.335,483.85 439.5,480.5C 439.5,468.5 439.5,456.5 439.5,444.5C 439.297,442.61 439.963,441.11 441.5,440C 456.83,439.5 472.163,439.333 487.5,439.5C 487.714,441.144 487.38,442.644 486.5,444C 472.504,444.5 458.504,444.667 444.5,444.5C 444.5,445.833 444.5,447.167 444.5,448.5 Z"/></g>
<g><path style="opacity:1" fill="#2f2f2f" d="M 668.5,442.5 C 669.794,443.29 670.961,444.29 672,445.5C 676.69,456.29 673.523,463.79 662.5,468C 652.506,468.5 642.506,468.666 632.5,468.5C 632.5,476.167 632.5,483.833 632.5,491.5C 630.856,491.714 629.356,491.38 628,490.5C 627.333,481.833 627.333,473.167 628,464.5C 640.494,463.95 652.994,463.117 665.5,462C 666.667,460.833 667.833,459.667 669,458.5C 670.689,452.655 669.189,447.988 664.5,444.5C 665.549,444.402 666.715,444.402 668,444.5C 668.464,443.906 668.631,443.239 668.5,442.5 Z"/></g>
<g><path style="opacity:1" fill="#232323" d="M 769.5,468.5 C 760.014,467.506 750.348,467.173 740.5,467.5C 740.5,475.167 740.5,482.833 740.5,490.5C 739.458,491.791 738.292,491.791 737,490.5C 736.333,473.833 736.333,457.167 737,440.5C 749.424,439.345 761.924,439.179 774.5,440C 783.404,443.643 786.571,450.143 784,459.5C 782.356,462.311 780.19,464.644 777.5,466.5C 780.363,468.537 782.53,471.204 784,474.5C 784.499,480.157 784.666,485.824 784.5,491.5C 783.178,491.67 782.011,491.337 781,490.5C 780.693,485.118 780.026,479.785 779,474.5C 776.669,470.971 773.503,468.971 769.5,468.5 Z"/></g>
<g><path style="opacity:1" fill="#fafafa" d="M 740.5,444.5 C 751.505,444.333 762.505,444.5 773.5,445C 780.627,448.442 782.127,453.609 778,460.5C 776.581,461.46 775.081,462.293 773.5,463C 762.505,463.5 751.505,463.667 740.5,463.5C 740.5,457.167 740.5,450.833 740.5,444.5 Z"/></g>
<g><path style="opacity:1" fill="#282828" d="M 903.5,439.5 C 904.75,439.577 905.583,440.244 906,441.5C 906.5,458.163 906.667,474.83 906.5,491.5C 904.856,491.714 903.356,491.38 902,490.5C 901.833,482.167 901.667,473.833 901.5,465.5C 901.529,456.602 902.196,447.936 903.5,439.5 Z"/></g>
<g><path style="opacity:1" fill="#c8c8c8" d="M 444.5,448.5 C 453.688,452.709 462.355,457.709 470.5,463.5C 461.833,463.5 453.167,463.5 444.5,463.5C 444.5,458.5 444.5,453.5 444.5,448.5 Z"/></g>
<g><path style="opacity:1" fill="#c7c7c7" d="M 550.5,458.5 C 552.699,462.866 556.032,466.032 560.5,468C 569.5,468.333 578.5,468.667 587.5,469C 589.066,469.608 590.4,470.442 591.5,471.5C 581.386,476.056 571.72,481.389 562.5,487.5C 558.5,487.5 554.5,487.5 550.5,487.5C 550.5,488.833 550.5,490.167 550.5,491.5C 561.833,491.5 573.167,491.5 584.5,491.5C 574.008,492.33 563.341,492.83 552.5,493C 547.833,495.667 543.167,498.333 538.5,501C 549.504,508.171 560.838,514.838 572.5,521C 573.381,521.708 574.047,522.542 574.5,523.5C 572.833,523.5 571.167,523.5 569.5,523.5C 569.5,533.833 569.5,544.167 569.5,554.5C 561.641,550.318 553.807,545.985 546,541.5C 545.501,547.157 545.334,552.824 545.5,558.5C 544.505,547.012 544.172,535.345 544.5,523.5C 543.081,522.549 541.415,522.216 539.5,522.5C 539.5,527.5 539.5,532.5 539.5,537.5C 528.861,531.512 518.194,525.512 507.5,519.5C 505.142,520.154 503.475,521.487 502.5,523.5C 498.5,523.5 494.5,523.5 490.5,523.5C 490.5,536.833 490.5,550.167 490.5,563.5C 489.669,552.341 489.169,541.007 489,529.5C 485.89,531.636 482.723,533.636 479.5,535.5C 479.817,531.298 479.483,527.298 478.5,523.5C 477.167,523.5 475.833,523.5 474.5,523.5C 474.5,530.833 474.5,538.167 474.5,545.5C 473.835,543.631 473.169,541.631 472.5,539.5C 470.604,540.275 468.937,541.275 467.5,542.5C 463.774,536.727 460.274,530.727 457,524.5C 455.301,523.594 453.467,523.261 451.5,523.5C 450.506,532.986 450.173,542.652 450.5,552.5C 445.833,554.833 441.167,557.167 436.5,559.5C 440.556,554.996 442.222,549.662 441.5,543.5C 442.272,536.128 439.939,530.128 434.5,525.5C 448.139,517.678 461.806,509.845 475.5,502C 465.651,493.453 454.318,489.953 441.5,491.5C 456.833,491.5 472.167,491.5 487.5,491.5C 487.5,490.167 487.5,488.833 487.5,487.5C 473.167,487.5 458.833,487.5 444.5,487.5C 444.5,481.167 444.5,474.833 444.5,468.5C 456.833,468.5 469.167,468.5 481.5,468.5C 489.604,473.726 497.937,478.726 506.5,483.5C 515.394,479.229 523.728,474.229 531.5,468.5C 539.218,472.299 540.552,477.799 535.5,485C 533.608,485.973 531.608,486.64 529.5,487C 518.167,487.333 506.833,487.667 495.5,488C 494.273,489.587 494.606,490.921 496.5,492C 508.5,492.667 520.5,492.667 532.5,492C 543.012,487.468 545.846,479.968 541,469.5C 539.603,467.93 538.103,466.596 536.5,465.5C 541.408,463.713 546.075,461.379 550.5,458.5 Z"/></g>
<g><path style="opacity:1" fill="#292929" d="M 165.5,439.5 C 166.75,439.577 167.583,440.244 168,441.5C 168.5,456.83 168.667,472.163 168.5,487.5C 182.504,487.333 196.504,487.5 210.5,488C 211.973,488.71 212.64,489.876 212.5,491.5C 196.256,491.825 180.089,491.491 164,490.5C 163.833,482.167 163.667,473.833 163.5,465.5C 163.529,456.602 164.196,447.936 165.5,439.5 Z"/></g>
<g><path style="opacity:1" fill="#222222" d="M 275.5,439.5 C 278.056,440.543 280.223,442.21 282,444.5C 294.214,457.227 306.214,470.227 318,483.5C 318.333,469.167 318.667,454.833 319,440.5C 319.718,439.549 320.551,439.383 321.5,440C 322.658,456.759 322.825,473.593 322,490.5C 320.951,491.517 319.784,491.684 318.5,491C 305.701,476.532 292.534,462.366 279,448.5C 278.667,462.5 278.333,476.5 278,490.5C 276.989,491.337 275.822,491.67 274.5,491.5C 274.181,474.09 274.515,456.756 275.5,439.5 Z"/></g>
<g><path style="opacity:1" fill="#252525" d="M 367.5,439.5 C 370.579,439.26 373.579,439.593 376.5,440.5C 377.626,441.808 377.626,443.142 376.5,444.5C 369.833,444.5 363.167,444.5 356.5,444.5C 356.667,459.837 356.5,475.17 356,490.5C 354.989,491.337 353.822,491.67 352.5,491.5C 352.5,475.833 352.5,460.167 352.5,444.5C 345.159,444.666 337.826,444.5 330.5,444C 329.167,442.667 329.167,441.333 330.5,440C 342.829,439.5 355.162,439.333 367.5,439.5 Z"/></g>
<g><path style="opacity:1" fill="#1e1e1e" d="M 389.5,487.5 C 403.504,487.333 417.504,487.5 431.5,488C 432.337,489.011 432.67,490.178 432.5,491.5C 416.83,491.667 401.163,491.5 385.5,491C 384.51,476.912 384.176,462.745 384.5,448.5C 384.337,446.143 384.503,443.81 385,441.5C 386.011,440.663 387.178,440.33 388.5,440.5C 388.17,456.342 388.504,472.009 389.5,487.5 Z"/></g>
<g><path style="opacity:1" fill="#2d2d2d" d="M 536.5,465.5 C 538.103,466.596 539.603,467.93 541,469.5C 545.846,479.968 543.012,487.468 532.5,492C 520.5,492.667 508.5,492.667 496.5,492C 494.606,490.921 494.273,489.587 495.5,488C 506.833,487.667 518.167,487.333 529.5,487C 531.608,486.64 533.608,485.973 535.5,485C 540.552,477.799 539.218,472.299 531.5,468.5C 522.827,468.666 514.16,468.5 505.5,468C 492.266,460.279 491.266,451.279 502.5,441C 515.79,439.242 529.123,439.076 542.5,440.5C 544.022,442.156 543.689,443.323 541.5,444C 529.5,444.333 517.5,444.667 505.5,445C 503.376,446.122 501.543,447.622 500,449.5C 498.532,455.445 500.365,459.945 505.5,463C 514.833,463.333 524.167,463.667 533.5,464C 534.244,465.039 535.244,465.539 536.5,465.5 Z"/></g>
<g><path style="opacity:1" fill="#252525" d="M 555.5,443.5 C 556.96,444.193 558.626,444.526 560.5,444.5C 555.757,446.972 554.09,450.639 555.5,455.5C 556.091,458.614 557.758,461.114 560.5,463C 569.833,463.333 579.167,463.667 588.5,464C 591.233,464.904 593.567,466.404 595.5,468.5C 597.199,471.07 598.199,473.903 598.5,477C 597.663,485.669 592.996,490.502 584.5,491.5C 573.167,491.5 561.833,491.5 550.5,491.5C 550.5,490.167 550.5,488.833 550.5,487.5C 554.5,487.5 558.5,487.5 562.5,487.5C 571.582,487.914 580.582,487.414 589.5,486C 593.996,481.703 594.663,476.87 591.5,471.5C 590.4,470.442 589.066,469.608 587.5,469C 578.5,468.667 569.5,468.333 560.5,468C 556.032,466.032 552.699,462.866 550.5,458.5C 549.372,452.425 551.039,447.425 555.5,443.5 Z"/></g>
<g><path style="opacity:1" fill="#212121" d="M 682.5,439.5 C 683.496,439.414 684.329,439.748 685,440.5C 685.075,453.889 685.742,467.222 687,480.5C 688.167,483 690,484.833 692.5,486C 701.175,487.962 709.842,487.962 718.5,486C 721,484.833 722.833,483 724,480.5C 725.278,467.236 725.945,453.902 726,440.5C 727,439.167 728,439.167 729,440.5C 729.667,453.5 729.667,466.5 729,479.5C 727.231,484.935 723.731,488.768 718.5,491C 710.167,491.667 701.833,491.667 693.5,491C 688.09,489.257 684.256,485.757 682,480.5C 681.186,466.758 681.353,453.092 682.5,439.5 Z"/></g>
<g><path style="opacity:1" fill="#888888" d="M 769.5,468.5 C 760.167,468.5 750.833,468.5 741.5,468.5C 741.825,476.019 741.492,483.352 740.5,490.5C 740.5,482.833 740.5,475.167 740.5,467.5C 750.348,467.173 760.014,467.506 769.5,468.5 Z"/></g>
<g><path style="opacity:1" fill="#262626" d="M 797.5,442.5 C 797.369,443.239 797.536,443.906 798,444.5C 799.451,444.264 800.951,444.264 802.5,444.5C 796.851,447.416 795.018,452.083 797,458.5C 798.167,460.333 799.667,461.833 801.5,463C 811.167,463.333 820.833,463.667 830.5,464C 839.828,469.376 841.994,476.876 837,486.5C 835.442,488.359 833.609,489.859 831.5,491C 818.5,491.667 805.5,491.667 792.5,491C 791.167,490 791.167,489 792.5,488C 804.167,487.667 815.833,487.333 827.5,487C 834.526,485.122 837.026,480.622 835,473.5C 833.5,472 832,470.5 830.5,469C 820.094,468.927 809.761,468.26 799.5,467C 789.769,459.369 789.103,451.203 797.5,442.5 Z"/></g>
<g><path style="opacity:1" fill="#2f2f2f" d="M 888.5,489.5 C 878.393,492.697 868.059,493.363 857.5,491.5C 855.519,489.697 853.352,488.03 851,486.5C 849.139,484.112 847.806,481.446 847,478.5C 846.5,465.838 846.333,453.171 846.5,440.5C 848.144,440.286 849.644,440.62 851,441.5C 851.333,453.833 851.667,466.167 852,478.5C 852.624,481.274 854.124,483.274 856.5,484.5C 858.148,485.927 860.148,486.76 862.5,487C 868.5,487.667 874.5,487.667 880.5,487C 884.279,485.789 887.279,483.623 889.5,480.5C 890.15,467.229 890.816,453.895 891.5,440.5C 893.156,438.978 894.323,439.311 895,441.5C 895.667,454.167 895.667,466.833 895,479.5C 892.978,483.003 890.811,486.337 888.5,489.5 Z"/></g>
<g><path style="opacity:1" fill="#252525" d="M 914.5,439.5 C 929.837,439.333 945.17,439.5 960.5,440C 961.727,441.587 961.394,442.921 959.5,444C 953.175,444.5 946.842,444.666 940.5,444.5C 940.667,459.837 940.5,475.17 940,490.5C 938.989,491.337 937.822,491.67 936.5,491.5C 936.5,475.833 936.5,460.167 936.5,444.5C 929.159,444.666 921.826,444.5 914.5,444C 913.272,442.51 913.272,441.01 914.5,439.5 Z"/></g>
<g><path style="opacity:1" fill="#fefffe" d="M 113.5,468.5 C 117.833,468.5 122.167,468.5 126.5,468.5C 126.5,474.833 126.5,481.167 126.5,487.5C 122.167,487.5 117.833,487.5 113.5,487.5C 113.5,481.167 113.5,474.833 113.5,468.5 Z"/></g>
<g><path style="opacity:1" fill="#fcfcfc" d="M 591.5,471.5 C 594.663,476.87 593.996,481.703 589.5,486C 580.582,487.414 571.582,487.914 562.5,487.5C 571.72,481.389 581.386,476.056 591.5,471.5 Z"/></g>
<g><path style="opacity:1" fill="#c9c9c9" d="M 888.5,489.5 C 888.5,506.5 888.5,523.5 888.5,540.5C 878.167,540.5 867.833,540.5 857.5,540.5C 857.5,524.167 857.5,507.833 857.5,491.5C 868.059,493.363 878.393,492.697 888.5,489.5 Z"/></g>
<g><path style="opacity:1" fill="#fefefe" d="M 539.5,537.5 C 539.174,546.017 539.507,554.35 540.5,562.5C 547.648,563.492 554.981,563.825 562.5,563.5C 562.5,561.833 562.5,560.167 562.5,558.5C 556.833,558.5 551.167,558.5 545.5,558.5C 545.334,552.824 545.501,547.157 546,541.5C 553.807,545.985 561.641,550.318 569.5,554.5C 569.5,557.5 569.5,560.5 569.5,563.5C 571.167,563.5 572.833,563.5 574.5,563.5C 574.5,561.833 574.5,560.167 574.5,558.5C 607.761,577.245 640.928,596.245 674,615.5C 674.833,680.169 674.667,744.836 673.5,809.5C 617.871,841.3 562.371,873.3 507,905.5C 451.629,873.3 396.129,841.3 340.5,809.5C 339.333,744.836 339.167,680.169 340,615.5C 366.256,599.954 392.756,584.787 419.5,570C 422.859,568.513 425.525,566.346 427.5,563.5C 430.896,563.116 433.896,561.782 436.5,559.5C 441.167,557.167 445.833,554.833 450.5,552.5C 450.5,556.167 450.5,559.833 450.5,563.5C 452.415,563.784 454.081,563.451 455.5,562.5C 455.5,557.833 455.5,553.167 455.5,548.5C 458.193,547.448 460.86,546.448 463.5,545.5C 467.071,550.967 470.404,556.633 473.5,562.5C 475.265,563.461 477.265,563.795 479.5,563.5C 479.5,554.167 479.5,544.833 479.5,535.5C 482.723,533.636 485.89,531.636 489,529.5C 489.169,541.007 489.669,552.341 490.5,563.5C 514.84,564.836 523.34,553.836 516,530.5C 512.394,526.447 507.894,524.114 502.5,523.5C 503.475,521.487 505.142,520.154 507.5,519.5C 518.194,525.512 528.861,531.512 539.5,537.5 Z"/></g>
<g><path style="opacity:1" fill="#4b4b4b" d="M 451.5,523.5 C 451.5,536.5 451.5,549.5 451.5,562.5C 452.833,562.5 454.167,562.5 455.5,562.5C 454.081,563.451 452.415,563.784 450.5,563.5C 450.5,559.833 450.5,556.167 450.5,552.5C 450.173,542.652 450.506,532.986 451.5,523.5 Z"/></g>
<g><path style="opacity:1" fill="#202020" d="M 350.5,523.5 C 357.833,523.5 365.167,523.5 372.5,523.5C 372.5,524.833 372.5,526.167 372.5,527.5C 366.833,527.5 361.167,527.5 355.5,527.5C 354.515,531.634 354.182,535.968 354.5,540.5C 359.5,540.5 364.5,540.5 369.5,540.5C 369.5,541.5 369.5,542.5 369.5,543.5C 364.5,543.5 359.5,543.5 354.5,543.5C 354.179,548.695 354.513,553.695 355.5,558.5C 361.926,557.88 367.926,558.547 373.5,560.5C 373.5,561.167 373.5,561.833 373.5,562.5C 365.833,562.5 358.167,562.5 350.5,562.5C 350.5,549.5 350.5,536.5 350.5,523.5 Z"/></g>
<g><path style="opacity:1" fill="#222222" d="M 393.5,548.5 C 393.5,553.5 393.5,558.5 393.5,563.5C 391.833,563.5 390.167,563.5 388.5,563.5C 388.5,559.833 388.5,556.167 388.5,552.5C 388.662,550.473 388.495,548.473 388,546.5C 384.294,538.922 380.461,531.422 376.5,524C 378.579,523.192 380.579,523.359 382.5,524.5C 385.077,530.652 387.91,536.652 391,542.5C 394.527,536.779 397.527,530.779 400,524.5C 401.494,523.253 402.994,523.253 404.5,524.5C 400.441,532.356 396.774,540.356 393.5,548.5 Z"/></g>
<g><path style="opacity:1" fill="#1f1f1f" d="M 574.5,523.5 C 574.5,535.167 574.5,546.833 574.5,558.5C 574.5,560.167 574.5,561.833 574.5,563.5C 572.833,563.5 571.167,563.5 569.5,563.5C 569.5,560.5 569.5,557.5 569.5,554.5C 569.5,544.167 569.5,533.833 569.5,523.5C 571.167,523.5 572.833,523.5 574.5,523.5 Z"/></g>
<g><path style="opacity:1" fill="#222222" d="M 683.5,522.5 C 688.121,521.993 692.454,522.826 696.5,525C 698.848,526.688 699.015,528.522 697,530.5C 691.907,526.925 686.573,526.592 681,529.5C 680.07,532.85 680.903,535.683 683.5,538C 687.918,539.806 692.251,541.806 696.5,544C 702.53,551.425 701.53,557.759 693.5,563C 685.933,564.713 679.266,563.047 673.5,558C 674.354,556.978 675.354,556.145 676.5,555.5C 682.516,560.247 688.683,560.58 695,556.5C 695.667,554.167 695.667,551.833 695,549.5C 690.106,546.3 684.939,543.467 679.5,541C 675.387,537.491 674.554,533.324 677,528.5C 678.494,525.686 680.66,523.686 683.5,522.5 Z"/></g>
<g><path style="opacity:1" fill="#545454" d="M 350.5,523.5 C 350.5,536.5 350.5,549.5 350.5,562.5C 358.167,562.5 365.833,562.5 373.5,562.5C 371.735,563.461 369.735,563.795 367.5,563.5C 361.5,563.5 355.5,563.5 349.5,563.5C 349.171,549.99 349.504,536.656 350.5,523.5 Z"/></g>
<g><path style="opacity:1" fill="#535353" d="M 478.5,523.5 C 479.483,527.298 479.817,531.298 479.5,535.5C 479.5,544.833 479.5,554.167 479.5,563.5C 477.265,563.795 475.265,563.461 473.5,562.5C 475.167,562.5 476.833,562.5 478.5,562.5C 478.5,549.5 478.5,536.5 478.5,523.5 Z"/></g>
<g><path style="opacity:1" fill="#8a8a8a" d="M 355.5,527.5 C 355.5,531.5 355.5,535.5 355.5,539.5C 360.363,539.181 365.03,539.514 369.5,540.5C 364.5,540.5 359.5,540.5 354.5,540.5C 354.182,535.968 354.515,531.634 355.5,527.5 Z"/></g>
<g><path style="opacity:1" fill="#373737" d="M 126.5,540.5 C 136.833,540.5 147.167,540.5 157.5,540.5C 204.5,540.5 251.5,540.5 298.5,540.5C 298.5,540.833 298.5,541.167 298.5,541.5C 225.5,541.5 152.5,541.5 79.5,541.5C 79.5,542.833 79.5,544.167 79.5,545.5C 78.5489,544.081 78.2155,542.415 78.5,540.5C 94.5,540.5 110.5,540.5 126.5,540.5 Z"/></g>
<g><path style="opacity:1" fill="#373737" d="M 716.5,541.5 C 716.5,541.167 716.5,540.833 716.5,540.5C 763.5,540.5 810.5,540.5 857.5,540.5C 867.833,540.5 878.167,540.5 888.5,540.5C 904.5,540.5 920.5,540.5 936.5,540.5C 936.784,542.415 936.451,544.081 935.5,545.5C 935.5,544.167 935.5,542.833 935.5,541.5C 862.5,541.5 789.5,541.5 716.5,541.5 Z"/></g>
<g><path style="opacity:1" fill="#202020" d="M 298.5,541.5 C 298.5,542.833 298.5,544.167 298.5,545.5C 251.5,545.5 204.5,545.5 157.5,545.5C 147.167,545.5 136.833,545.5 126.5,545.5C 110.833,545.5 95.1667,545.5 79.5,545.5C 79.5,544.167 79.5,542.833 79.5,541.5C 152.5,541.5 225.5,541.5 298.5,541.5 Z"/></g>
<g><path style="opacity:1" fill="#202020" d="M 716.5,541.5 C 789.5,541.5 862.5,541.5 935.5,541.5C 935.5,542.833 935.5,544.167 935.5,545.5C 919.833,545.5 904.167,545.5 888.5,545.5C 878.167,545.5 867.833,545.5 857.5,545.5C 810.5,545.5 763.5,545.5 716.5,545.5C 716.5,544.167 716.5,542.833 716.5,541.5 Z"/></g>
<g><path style="opacity:1" fill="#6b6b6b" d="M 369.5,540.5 C 370.434,541.568 370.768,542.901 370.5,544.5C 365.5,544.5 360.5,544.5 355.5,544.5C 355.5,549.167 355.5,553.833 355.5,558.5C 354.513,553.695 354.179,548.695 354.5,543.5C 359.5,543.5 364.5,543.5 369.5,543.5C 369.5,542.5 369.5,541.5 369.5,540.5 Z"/></g>
<g><path style="opacity:1" fill="#dfdfdf" d="M 298.5,540.5 C 299.461,542.265 299.795,544.265 299.5,546.5C 252.167,546.5 204.833,546.5 157.5,546.5C 157.5,546.167 157.5,545.833 157.5,545.5C 204.5,545.5 251.5,545.5 298.5,545.5C 298.5,544.167 298.5,542.833 298.5,541.5C 298.5,541.167 298.5,540.833 298.5,540.5 Z"/></g>
<g><path style="opacity:1" fill="#232323" d="M 314.5,523.5 C 320.509,523.334 326.509,523.501 332.5,524C 338.161,525.82 340.328,529.653 339,535.5C 337.5,538.333 335.333,540.5 332.5,542C 341.271,544.042 343.771,549.209 340,557.5C 338.457,559.378 336.624,560.878 334.5,562C 327.897,563.274 321.23,563.774 314.5,563.5C 314.5,550.167 314.5,536.833 314.5,523.5 Z"/></g>
<g><path style="opacity:1" fill="#fafafa" d="M 329.5,544.5 C 336.104,545.334 338.271,549.001 336,555.5C 335.097,556.701 333.931,557.535 332.5,558C 329.342,558.554 326.175,559.054 323,559.5C 321.615,559.486 320.449,559.152 319.5,558.5C 319.5,553.833 319.5,549.167 319.5,544.5C 322.833,544.5 326.167,544.5 329.5,544.5 Z"/></g>
<g><path style="opacity:1" fill="#7d7d7d" d="M 327.5,527.5 C 324.833,527.5 322.167,527.5 319.5,527.5C 319.5,531.5 319.5,535.5 319.5,539.5C 318.515,535.366 318.182,531.032 318.5,526.5C 321.713,526.19 324.713,526.523 327.5,527.5 Z"/></g>
<g><path style="opacity:1" fill="#f8f8f8" d="M 327.5,527.5 C 334.005,528.021 336.005,531.355 333.5,537.5C 332.335,538.584 331.002,539.417 329.5,540C 325.973,540.808 322.64,540.641 319.5,539.5C 319.5,535.5 319.5,531.5 319.5,527.5C 322.167,527.5 324.833,527.5 327.5,527.5 Z"/></g>
<g><path style="opacity:1" fill="#262626" d="M 434.5,525.5 C 439.939,530.128 442.272,536.128 441.5,543.5C 442.222,549.662 440.556,554.996 436.5,559.5C 433.896,561.782 430.896,563.116 427.5,563.5C 418.077,564.584 411.91,560.584 409,551.5C 408.501,547.179 408.334,542.846 408.5,538.5C 411.832,523.502 420.499,519.168 434.5,525.5 Z"/></g>
<g><path style="opacity:1" fill="#c4c4c4" d="M 428.5,527.5 C 434.748,530.847 437.415,536.18 436.5,543.5C 436.682,549.178 434.682,554.012 430.5,558C 422.298,560.648 416.798,557.815 414,549.5C 413.185,544.648 413.352,539.981 414.5,535.5C 415.721,536.465 417.054,536.298 418.5,535C 422.508,533.188 425.841,530.688 428.5,527.5 Z"/></g>
<g><path style="opacity:1" fill="#ededed" d="M 428.5,527.5 C 425.841,530.688 422.508,533.188 418.5,535C 417.054,536.298 415.721,536.465 414.5,535.5C 415.485,531.67 417.819,528.837 421.5,527C 423.929,526.297 426.262,526.463 428.5,527.5 Z"/></g>
<g><path style="opacity:1" fill="#242424" d="M 451.5,523.5 C 453.467,523.261 455.301,523.594 457,524.5C 460.274,530.727 463.774,536.727 467.5,542.5C 469.64,546.78 471.807,551.114 474,555.5C 474.498,552.183 474.665,548.85 474.5,545.5C 474.5,538.167 474.5,530.833 474.5,523.5C 475.833,523.5 477.167,523.5 478.5,523.5C 478.5,536.5 478.5,549.5 478.5,562.5C 476.833,562.5 475.167,562.5 473.5,562.5C 470.404,556.633 467.071,550.967 463.5,545.5C 460.758,541.019 458.258,536.353 456,531.5C 455.501,537.157 455.334,542.824 455.5,548.5C 455.5,553.167 455.5,557.833 455.5,562.5C 454.167,562.5 452.833,562.5 451.5,562.5C 451.5,549.5 451.5,536.5 451.5,523.5 Z"/></g>
<g><path style="opacity:1" fill="#c2c2c2" d="M 463.5,545.5 C 460.86,546.448 458.193,547.448 455.5,548.5C 455.334,542.824 455.501,537.157 456,531.5C 458.258,536.353 460.758,541.019 463.5,545.5 Z"/></g>
<g><path style="opacity:1" fill="#232323" d="M 502.5,523.5 C 507.894,524.114 512.394,526.447 516,530.5C 523.34,553.836 514.84,564.836 490.5,563.5C 490.5,550.167 490.5,536.833 490.5,523.5C 494.5,523.5 498.5,523.5 502.5,523.5 Z"/></g>
<g><path style="opacity:1" fill="#5c5c5c" d="M 495.5,527.5 C 495.5,537.833 495.5,548.167 495.5,558.5C 498.167,558.5 500.833,558.5 503.5,558.5C 500.713,559.477 497.713,559.81 494.5,559.5C 494.172,548.654 494.506,537.987 495.5,527.5 Z"/></g>
<g><path style="opacity:1" fill="#fbfbfb" d="M 495.5,527.5 C 504.003,525.666 509.837,528.666 513,536.5C 513.667,541.167 513.667,545.833 513,550.5C 511.505,555.162 508.339,557.828 503.5,558.5C 500.833,558.5 498.167,558.5 495.5,558.5C 495.5,548.167 495.5,537.833 495.5,527.5 Z"/></g>
<g><path style="opacity:1" fill="#262626" d="M 544.5,523.5 C 544.172,535.345 544.505,547.012 545.5,558.5C 551.167,558.5 556.833,558.5 562.5,558.5C 562.5,560.167 562.5,561.833 562.5,563.5C 554.981,563.825 547.648,563.492 540.5,562.5C 540.5,549.5 540.5,536.5 540.5,523.5C 541.833,523.5 543.167,523.5 544.5,523.5 Z"/></g>
<g><path style="opacity:1" fill="#1e1e1e" d="M 642.5,523.5 C 652.167,523.5 661.833,523.5 671.5,523.5C 671.5,524.833 671.5,526.167 671.5,527.5C 667.5,527.5 663.5,527.5 659.5,527.5C 659.5,539.5 659.5,551.5 659.5,563.5C 657.833,563.5 656.167,563.5 654.5,563.5C 654.5,551.5 654.5,539.5 654.5,527.5C 650.5,527.5 646.5,527.5 642.5,527.5C 642.5,526.167 642.5,524.833 642.5,523.5 Z"/></g>
<g><path style="opacity:1" fill="#dfdfdf" d="M 716.5,540.5 C 716.5,540.833 716.5,541.167 716.5,541.5C 716.5,542.833 716.5,544.167 716.5,545.5C 763.5,545.5 810.5,545.5 857.5,545.5C 857.5,545.833 857.5,546.167 857.5,546.5C 810.167,546.5 762.833,546.5 715.5,546.5C 715.205,544.265 715.539,542.265 716.5,540.5 Z"/></g>
<g><path style="opacity:1" fill="#888888" d="M 329.5,544.5 C 326.167,544.5 322.833,544.5 319.5,544.5C 319.5,549.167 319.5,553.833 319.5,558.5C 318.513,553.695 318.179,548.695 318.5,543.5C 322.371,543.185 326.038,543.518 329.5,544.5 Z"/></g>
<g><path style="opacity:1" fill="#838383" d="M 544.5,523.5 C 543.167,523.5 541.833,523.5 540.5,523.5C 540.5,536.5 540.5,549.5 540.5,562.5C 539.507,554.35 539.174,546.017 539.5,537.5C 539.5,532.5 539.5,527.5 539.5,522.5C 541.415,522.216 543.081,522.549 544.5,523.5 Z"/></g>
<g><path style="opacity:1" fill="#c9c9c9" d="M 574.5,523.5 C 578.249,524.872 581.915,526.539 585.5,528.5C 585.5,540.167 585.5,551.833 585.5,563.5C 587.167,563.5 588.833,563.5 590.5,563.5C 590.173,553.319 590.506,543.319 591.5,533.5C 594.507,542.177 597.507,550.844 600.5,559.5C 601.833,559.5 603.167,559.5 604.5,559.5C 607.348,550.123 610.515,540.79 614,531.5C 614.499,536.155 614.666,540.821 614.5,545.5C 613.51,551.31 613.177,557.31 613.5,563.5C 615.5,563.5 617.5,563.5 619.5,563.5C 619.5,558.5 619.5,553.5 619.5,548.5C 622.634,549.901 625.634,551.568 628.5,553.5C 629.167,543.341 629.833,533.341 630.5,523.5C 630.5,536.833 630.5,550.167 630.5,563.5C 631.833,563.5 633.167,563.5 634.5,563.5C 634.5,550.167 634.5,536.833 634.5,523.5C 635.331,534.659 635.831,545.993 636,557.5C 658.704,571.033 681.537,584.366 704.5,597.5C 705.167,662.167 705.833,726.833 706.5,791.5C 756.5,762.5 806.5,733.5 856.5,704.5C 857.5,651.838 857.833,599.171 857.5,546.5C 857.5,546.167 857.5,545.833 857.5,545.5C 867.833,545.5 878.167,545.5 888.5,545.5C 888.667,604.168 888.5,662.834 888,721.5C 761.412,795.212 634.579,868.546 507.5,941.5C 380.421,868.546 253.588,795.212 127,721.5C 126.5,662.834 126.333,604.168 126.5,545.5C 136.833,545.5 147.167,545.5 157.5,545.5C 157.5,545.833 157.5,546.167 157.5,546.5C 157.167,599.171 157.5,651.838 158.5,704.5C 208.031,733.431 257.697,762.098 307.5,790.5C 307.56,791.043 307.893,791.376 308.5,791.5C 309.5,726.837 309.833,662.17 309.5,597.5C 328.833,586.167 348.167,574.833 367.5,563.5C 369.735,563.795 371.735,563.461 373.5,562.5C 373.5,561.833 373.5,561.167 373.5,560.5C 378.368,557.566 383.368,554.9 388.5,552.5C 388.5,556.167 388.5,559.833 388.5,563.5C 390.167,563.5 391.833,563.5 393.5,563.5C 393.5,558.5 393.5,553.5 393.5,548.5C 399.453,546.373 404.453,543.04 408.5,538.5C 408.334,542.846 408.501,547.179 409,551.5C 411.91,560.584 418.077,564.584 427.5,563.5C 425.525,566.346 422.859,568.513 419.5,570C 392.756,584.787 366.256,599.954 340,615.5C 339.167,680.169 339.333,744.836 340.5,809.5C 396.129,841.3 451.629,873.3 507,905.5C 562.371,873.3 617.871,841.3 673.5,809.5C 674.667,744.836 674.833,680.169 674,615.5C 640.928,596.245 607.761,577.245 574.5,558.5C 574.5,546.833 574.5,535.167 574.5,523.5 Z"/></g>
<g><path style="opacity:1" fill="#7a7a7a" d="M 618.5,523.5 C 619.493,531.65 619.826,539.983 619.5,548.5C 619.5,553.5 619.5,558.5 619.5,563.5C 617.5,563.5 615.5,563.5 613.5,563.5C 613.177,557.31 613.51,551.31 614.5,545.5C 614.5,551.167 614.5,556.833 614.5,562.5C 615.833,562.5 617.167,562.5 618.5,562.5C 618.5,549.5 618.5,536.5 618.5,523.5 Z"/></g>
<g><path style="opacity:1" fill="#4b4b4b" d="M 586.5,523.5 C 586.5,536.5 586.5,549.5 586.5,562.5C 587.5,562.5 588.5,562.5 589.5,562.5C 589.333,551.495 589.5,540.495 590,529.5C 590.41,530.901 590.91,532.234 591.5,533.5C 590.506,543.319 590.173,553.319 590.5,563.5C 588.833,563.5 587.167,563.5 585.5,563.5C 585.5,551.833 585.5,540.167 585.5,528.5C 585.216,526.585 585.549,524.919 586.5,523.5 Z"/></g>
<g><path style="opacity:1" fill="#202020" d="M 630.5,523.5 C 631.833,523.5 633.167,523.5 634.5,523.5C 634.5,536.833 634.5,550.167 634.5,563.5C 633.167,563.5 631.833,563.5 630.5,563.5C 630.5,550.167 630.5,536.833 630.5,523.5 Z"/></g>
<g><path style="opacity:1" fill="#f8f8f8" d="M 474.5,545.5 C 474.665,548.85 474.498,552.183 474,555.5C 471.807,551.114 469.64,546.78 467.5,542.5C 468.937,541.275 470.604,540.275 472.5,539.5C 473.169,541.631 473.835,543.631 474.5,545.5 Z"/></g>
<g><path style="opacity:1" fill="#242424" d="M 586.5,523.5 C 588.467,523.261 590.301,523.594 592,524.5C 593.41,528.236 594.91,531.902 596.5,535.5C 598.098,541.292 600.098,546.959 602.5,552.5C 603.641,548.409 604.975,544.409 606.5,540.5C 608.922,535.432 611.088,530.099 613,524.5C 614.699,523.594 616.533,523.261 618.5,523.5C 618.5,536.5 618.5,549.5 618.5,562.5C 617.167,562.5 615.833,562.5 614.5,562.5C 614.5,556.833 614.5,551.167 614.5,545.5C 614.666,540.821 614.499,536.155 614,531.5C 610.515,540.79 607.348,550.123 604.5,559.5C 603.167,559.5 601.833,559.5 600.5,559.5C 597.507,550.844 594.507,542.177 591.5,533.5C 590.91,532.234 590.41,530.901 590,529.5C 589.5,540.495 589.333,551.495 589.5,562.5C 588.5,562.5 587.5,562.5 586.5,562.5C 586.5,549.5 586.5,536.5 586.5,523.5 Z"/></g>
<g><path style="opacity:1" fill="#bfbfbf" d="M 596.5,535.5 C 599.807,537.153 603.14,538.82 606.5,540.5C 604.975,544.409 603.641,548.409 602.5,552.5C 600.098,546.959 598.098,541.292 596.5,535.5 Z"/></g>
<g><path style="opacity:1" fill="#e1e1e1" d="M 309.5,597.5 C 309.833,662.17 309.5,726.837 308.5,791.5C 307.893,791.376 307.56,791.043 307.5,790.5C 308.167,726.167 308.833,661.833 309.5,597.5 Z"/></g>
</svg>
