<?xml version="1.0" encoding="UTF-8"?>
<!DOCTYPE svg PUBLIC "-//W3C//DTD SVG 1.1//EN" "http://www.w3.org/Graphics/SVG/1.1/DTD/svg11.dtd">
<svg xmlns="http://www.w3.org/2000/svg" version="1.1" width="2026px" height="1876px" style="shape-rendering:geometricPrecision; text-rendering:geometricPrecision; image-rendering:optimizeQuality; fill-rule:evenodd; clip-rule:evenodd" xmlns:xlink="http://www.w3.org/1999/xlink">
<g><path style="opacity:1" fill="#fefefe" d="M -0.5,-0.5 C 674.833,-0.5 1350.17,-0.5 2025.5,-0.5C 2025.5,624.833 2025.5,1250.17 2025.5,1875.5C 1350.17,1875.5 674.833,1875.5 -0.5,1875.5C -0.5,1250.17 -0.5,624.833 -0.5,-0.5 Z"/></g>
<g><path style="opacity:1" fill="#c8c8c8" d="M 1743.5,903.5 C 1745.46,921.381 1737.46,931.547 1719.5,934C 1709.83,934.667 1700.17,934.667 1690.5,934C 1684.51,933.845 1679.51,931.679 1675.5,927.5C 1677.06,898.683 1677.9,869.683 1678,840.5C 1678.67,749.167 1678.67,657.833 1678,566.5C 1677.82,563.447 1677.32,560.447 1676.5,557.5C 1575.75,499.04 1474.92,440.707 1374,382.5C 1372.42,511.817 1371.42,641.151 1371,770.5C 1331.74,792.631 1292.9,815.298 1254.5,838.5C 1243.64,838.248 1232.81,838.581 1222,839.5C 1217.18,840.515 1215.35,843.515 1216.5,848.5C 1222.17,848.5 1227.83,848.5 1233.5,848.5C 1207.17,864.5 1180.83,880.5 1154.5,896.5C 1150.85,892.67 1146.51,889.837 1141.5,888C 1122.16,887.143 1102.82,886.143 1083.5,885C 1078.58,881.324 1075.58,876.49 1074.5,870.5C 1087.31,864.322 1099.31,856.989 1110.5,848.5C 1125.85,848.487 1141.18,847.987 1156.5,847C 1159.35,845.258 1160.02,842.925 1158.5,840C 1150.19,839.026 1141.86,838.526 1133.5,838.5C 1191.28,803.437 1249.61,769.103 1308.5,735.5C 1309.33,726.852 1309.83,718.186 1310,709.5C 1310.67,591.167 1310.67,472.833 1310,354.5C 1309.82,351.447 1309.32,348.447 1308.5,345.5C 1198.5,281.833 1088.5,218.167 978.5,154.5C 867.167,218.833 755.833,283.167 644.5,347.5C 644.167,349 643.833,350.5 643.5,352C 642.342,471.157 642.175,590.323 643,709.5C 643.168,718.186 643.668,726.852 644.5,735.5C 710.002,773.994 776.002,811.661 842.5,848.5C 842.5,872.167 842.5,895.833 842.5,919.5C 809.974,901.317 777.474,882.984 745,864.5C 743.704,871.332 743.037,878.332 743,885.5C 742.5,898.162 742.333,910.829 742.5,923.5C 741.673,918.015 741.173,912.348 741,906.5C 740.5,884.503 740.333,862.503 740.5,840.5C 738.064,840.317 735.897,840.984 734,842.5C 733.006,847.118 732.506,851.785 732.5,856.5C 727.167,853.833 721.833,851.167 716.5,848.5C 717.779,845.998 717.779,843.498 716.5,841C 710.601,839.406 704.601,838.572 698.5,838.5C 660.639,814.977 622.139,792.311 583,770.5C 581.624,641.822 580.291,513.156 579,384.5C 479.888,442.766 380.388,500.432 280.5,557.5C 279.671,562.802 279.171,568.136 279,573.5C 278.5,729.166 278.333,884.833 278.5,1040.5C 257.833,1040.5 237.167,1040.5 216.5,1040.5C 216.5,1008.5 216.5,976.5 216.5,944.5C 205.954,944.792 195.621,944.125 185.5,942.5C 215.833,942.5 246.167,942.5 276.5,942.5C 276.5,939.833 276.5,937.167 276.5,934.5C 256.5,934.5 236.5,934.5 216.5,934.5C 216.5,921.833 216.5,909.167 216.5,896.5C 210.167,896.5 203.833,896.5 197.5,896.5C 201.312,895.676 205.312,895.176 209.5,895C 231.831,894.5 254.164,894.333 276.5,894.5C 276.5,891.833 276.5,889.167 276.5,886.5C 256.5,886.5 236.5,886.5 216.5,886.5C 216.5,873.833 216.5,861.167 216.5,848.5C 235.863,848.661 255.196,847.994 274.5,846.5C 276.229,844.149 276.896,841.482 276.5,838.5C 256.5,838.5 236.5,838.5 216.5,838.5C 216.333,761.499 216.5,684.499 217,607.5C 217.031,578.911 217.864,550.411 219.5,522C 471.52,374.651 724.52,228.817 978.5,84.5C 1231.75,230.374 1484.92,376.374 1738,522.5C 1739.65,649.665 1741.48,776.665 1743.5,903.5 Z"/></g>
<g><path style="opacity:1" fill="#fdfdfd" d="M 1133.5,838.5 C 1117.14,838.194 1100.8,838.694 1084.5,840C 1069.12,847.256 1062.45,859.422 1064.5,876.5C 1055.68,882.113 1046.34,886.78 1036.5,890.5C 1033.98,890.872 1031.98,890.039 1030.5,888C 1011.49,887.119 992.492,886.119 973.5,885C 964.158,878.989 960.658,870.489 963,859.5C 965.552,855.281 969.052,852.114 973.5,850C 997.845,849.203 1022.18,848.203 1046.5,847C 1050.79,846.132 1051.46,844.132 1048.5,841C 1021.77,837.507 995.099,837.84 968.5,842C 947.058,861.929 948.724,879.595 973.5,895C 990.805,896.32 1008.14,896.82 1025.5,896.5C 1010.4,908.231 994.066,918.231 976.5,926.5C 959.602,917.227 943.269,907.227 927.5,896.5C 930.568,896.453 933.568,895.953 936.5,895C 938.994,892.577 938.994,890.244 936.5,888C 925.549,886.65 914.549,886.15 903.5,886.5C 887.688,874.75 870.688,864.75 852.5,856.5C 852.5,853.833 852.5,851.167 852.5,848.5C 877.843,848.755 903.177,848.421 928.5,847.5C 935.943,848.901 939.276,845.901 938.5,838.5C 907.817,838.162 877.15,838.662 846.5,840C 843.156,841.894 841.822,844.727 842.5,848.5C 776.002,811.661 710.002,773.994 644.5,735.5C 643.668,726.852 643.168,718.186 643,709.5C 642.175,590.323 642.342,471.157 643.5,352C 643.833,350.5 644.167,349 644.5,347.5C 755.833,283.167 867.167,218.833 978.5,154.5C 1088.5,218.167 1198.5,281.833 1308.5,345.5C 1309.32,348.447 1309.82,351.447 1310,354.5C 1310.67,472.833 1310.67,591.167 1310,709.5C 1309.83,718.186 1309.33,726.852 1308.5,735.5C 1249.61,769.103 1191.28,803.437 1133.5,838.5 Z"/></g>
<g><path style="opacity:1" fill="#fdfdfd" d="M 1675.5,927.5 C 1671.62,925.794 1669.12,922.794 1668,918.5C 1667.36,893.13 1666.2,867.797 1664.5,842.5C 1662.15,840.771 1659.48,840.104 1656.5,840.5C 1656.18,866.186 1656.68,891.852 1658,917.5C 1659.28,922.725 1661.61,927.391 1665,931.5C 1669.85,934.827 1674.35,938.493 1678.5,942.5C 1678.5,975.167 1678.5,1007.83 1678.5,1040.5C 1584.5,1040.5 1490.5,1040.5 1396.5,1040.5C 1394.75,1044.18 1394.08,1048.18 1394.5,1052.5C 1489.17,1052.5 1583.83,1052.5 1678.5,1052.5C 1678.9,1157.84 1678.06,1263.18 1676,1368.5C 1576.33,1426.5 1476.67,1484.5 1377,1542.5C 1375.59,1413.16 1373.92,1283.83 1372,1154.5C 1326.5,1128.09 1281.17,1101.42 1236,1074.5C 1235.37,1053.31 1234.21,1032.31 1232.5,1011.5C 1232.5,1009.83 1232.5,1008.17 1232.5,1006.5C 1229.83,1006.5 1227.17,1006.5 1224.5,1006.5C 1224.5,1007.5 1224.5,1008.5 1224.5,1009.5C 1223.18,1028.37 1221.68,1047.37 1220,1066.5C 1214.55,1062.52 1208.71,1059.19 1202.5,1056.5C 1202.67,1044.5 1202.5,1032.5 1202,1020.5C 1201.82,1016.64 1201.32,1012.98 1200.5,1009.5C 1200.5,1008.5 1200.5,1007.5 1200.5,1006.5C 1196.25,1005.99 1192.41,1006.99 1189,1009.5C 1185.37,1020.09 1181.2,1030.42 1176.5,1040.5C 1170.06,1036.95 1163.4,1033.95 1156.5,1031.5C 1153.45,1023.86 1150.28,1016.2 1147,1008.5C 1143.52,1006.5 1140.02,1006.16 1136.5,1007.5C 1134.88,1010.17 1134.22,1013.17 1134.5,1016.5C 1127.4,1012.62 1120.07,1009.29 1112.5,1006.5C 1110.33,1003.5 1107.67,1001 1104.5,999C 1082.47,987.996 1061.47,975.496 1041.5,961.5C 1050,956.082 1058.67,950.915 1067.5,946C 1085.98,944.951 1104.31,943.785 1122.5,942.5C 1135.32,943.729 1146.15,939.729 1155,930.5C 1162.45,918.946 1162.28,907.612 1154.5,896.5C 1180.83,880.5 1207.17,864.5 1233.5,848.5C 1253.5,848.5 1273.5,848.5 1293.5,848.5C 1302.46,856.387 1304.96,866.054 1301,877.5C 1299.17,879.333 1297.33,881.167 1295.5,883C 1270.2,885.4 1244.87,887.233 1219.5,888.5C 1218.02,905.848 1218.19,923.181 1220,940.5C 1222.56,942.179 1225.4,942.846 1228.5,942.5C 1228.5,927.167 1228.5,911.833 1228.5,896.5C 1248.53,896.85 1268.53,896.35 1288.5,895C 1309.78,887.6 1316.28,873.433 1308,852.5C 1306.26,849.261 1303.76,846.927 1300.5,845.5C 1297.74,843.92 1295.07,842.087 1292.5,840C 1279.88,838.652 1267.21,838.152 1254.5,838.5C 1292.9,815.298 1331.74,792.631 1371,770.5C 1371.42,641.151 1372.42,511.817 1374,382.5C 1474.92,440.707 1575.75,499.04 1676.5,557.5C 1677.32,560.447 1677.82,563.447 1678,566.5C 1678.67,657.833 1678.67,749.167 1678,840.5C 1677.9,869.683 1677.06,898.683 1675.5,927.5 Z"/></g>
<g><path style="opacity:1" fill="#fdfdfd" d="M 698.5,838.5 C 673.812,838.156 649.145,838.656 624.5,840C 622.006,842.423 622.006,844.756 624.5,847C 639.13,848.351 653.797,848.851 668.5,848.5C 668.5,879.833 668.5,911.167 668.5,942.5C 670.936,942.683 673.103,942.016 675,940.5C 676.349,909.851 676.849,879.184 676.5,848.5C 689.833,848.5 703.167,848.5 716.5,848.5C 721.833,851.167 727.167,853.833 732.5,856.5C 732.197,884.863 732.864,913.196 734.5,941.5C 765.825,942.353 797.158,942.686 828.5,942.5C 828.683,940.064 828.016,937.897 826.5,936C 798.519,934.645 770.519,934.145 742.5,934.5C 742.5,930.833 742.5,927.167 742.5,923.5C 742.333,910.829 742.5,898.162 743,885.5C 743.037,878.332 743.704,871.332 745,864.5C 777.474,882.984 809.974,901.317 842.5,919.5C 842.036,926.967 842.703,934.301 844.5,941.5C 853.794,941.214 863.127,941.547 872.5,942.5C 882.045,945.075 891.378,948.575 900.5,953C 905.292,955.961 909.625,959.461 913.5,963.5C 886.636,979.431 859.636,995.098 832.5,1010.5C 804.44,997.863 787.106,1006.53 780.5,1036.5C 773.159,1044.67 764.326,1050.67 754,1054.5C 752.97,1054.16 752.47,1053.5 752.5,1052.5C 757.948,1037.44 764.615,1022.94 772.5,1009C 769.099,1005.52 765.933,1005.68 763,1009.5C 758.388,1021.39 752.721,1032.72 746,1043.5C 745.075,1042.95 744.242,1042.29 743.5,1041.5C 738.78,1030.28 733.613,1019.28 728,1008.5C 724.715,1006.86 721.215,1006.2 717.5,1006.5C 723.849,1021.53 731.016,1036.2 739,1050.5C 739.994,1055.12 740.494,1059.78 740.5,1064.5C 730.183,1069.32 720.183,1074.66 710.5,1080.5C 698.593,1077.32 686.593,1075.66 674.5,1075.5C 674.5,1066.5 674.5,1057.5 674.5,1048.5C 684.5,1048.5 694.5,1048.5 704.5,1048.5C 704.829,1045.77 704.163,1043.44 702.5,1041.5C 701.791,1040.6 700.791,1040.26 699.5,1040.5C 698.048,1039.7 696.382,1039.2 694.5,1039C 687.842,1038.5 681.175,1038.33 674.5,1038.5C 674.5,1030.83 674.5,1023.17 674.5,1015.5C 685.654,1014.51 696.988,1014.17 708.5,1014.5C 708.5,1011.83 708.5,1009.17 708.5,1006.5C 693.833,1006.5 679.167,1006.5 664.5,1006.5C 664.5,1008.5 664.5,1010.5 664.5,1012.5C 663.672,1018.32 663.172,1024.32 663,1030.5C 662.5,1049.16 662.333,1067.83 662.5,1086.5C 674.167,1086.5 685.833,1086.5 697.5,1086.5C 659.728,1109.23 621.728,1131.73 583.5,1154C 582.511,1166.42 582.178,1178.92 582.5,1191.5C 581.094,1307.5 579.428,1423.5 577.5,1539.5C 478.15,1483.41 379.316,1426.41 281,1368.5C 278.936,1263.18 278.103,1157.84 278.5,1052.5C 373.167,1052.5 467.833,1052.5 562.5,1052.5C 562.884,1048.51 562.217,1044.84 560.5,1041.5C 466.668,1040.5 372.668,1040.17 278.5,1040.5C 278.333,884.833 278.5,729.166 279,573.5C 279.171,568.136 279.671,562.802 280.5,557.5C 380.388,500.432 479.888,442.766 579,384.5C 580.291,513.156 581.624,641.822 583,770.5C 622.139,792.311 660.639,814.977 698.5,838.5 Z"/></g>
<g><path style="opacity:1" fill="#2e2e2e" d="M 72.5,838.5 C 97.1889,838.142 121.856,838.642 146.5,840C 162.748,845.929 169.248,857.429 166,874.5C 163.613,882.057 159.113,888.057 152.5,892.5C 168.309,905.898 172.642,922.398 165.5,942C 163.299,942.825 161.466,942.325 160,940.5C 159.056,929.388 157.389,918.388 155,907.5C 153.539,903.74 151.039,900.907 147.5,899C 122.583,897.242 97.5826,895.908 72.5,895C 69.8333,893 69.8333,891 72.5,889C 96.7914,887.055 121.125,885.722 145.5,885C 159.11,878.711 162.277,868.878 155,855.5C 153.062,852.894 150.562,851.061 147.5,850C 122.487,849.24 97.4871,848.24 72.5,847C 71.3213,844.204 71.3213,841.371 72.5,838.5 Z"/></g>
<g><path style="opacity:1" fill="#242424" d="M 216.5,838.5 C 236.5,838.5 256.5,838.5 276.5,838.5C 276.896,841.482 276.229,844.149 274.5,846.5C 255.196,847.994 235.863,848.661 216.5,848.5C 207.833,848.5 199.167,848.5 190.5,848.5C 190.5,861.167 190.5,873.833 190.5,886.5C 199.167,886.5 207.833,886.5 216.5,886.5C 236.5,886.5 256.5,886.5 276.5,886.5C 276.5,889.167 276.5,891.833 276.5,894.5C 254.164,894.333 231.831,894.5 209.5,895C 205.312,895.176 201.312,895.676 197.5,896.5C 195.167,896.5 192.833,896.5 190.5,896.5C 190.5,909.167 190.5,921.833 190.5,934.5C 199.167,934.5 207.833,934.5 216.5,934.5C 236.5,934.5 256.5,934.5 276.5,934.5C 276.5,937.167 276.5,939.833 276.5,942.5C 246.167,942.5 215.833,942.5 185.5,942.5C 183.876,942.64 182.71,941.973 182,940.5C 180.081,907.827 180.081,875.161 182,842.5C 184.228,840.032 187.062,838.865 190.5,839C 199.16,838.5 207.827,838.334 216.5,838.5 Z"/></g>
<g><path style="opacity:1" fill="#2e2e2e" d="M 294.5,838.5 C 296.229,839.117 297.729,840.117 299,841.5C 300.329,872.484 300.829,903.484 300.5,934.5C 328.519,934.145 356.519,934.645 384.5,936C 387.222,937.272 388.556,939.439 388.5,942.5C 356.14,942.823 323.807,942.156 291.5,940.5C 290.582,917.173 290.415,893.839 291,870.5C 291.62,859.75 292.787,849.084 294.5,838.5 Z"/></g>
<g><path style="opacity:1" fill="#2d2d2d" d="M 403.5,838.5 C 434.861,838.178 466.194,838.844 497.5,840.5C 497.915,843.368 496.915,845.535 494.5,847C 466.519,848.343 438.519,848.843 410.5,848.5C 410.5,861.167 410.5,873.833 410.5,886.5C 438.519,886.145 466.519,886.645 494.5,888C 498.5,890.333 498.5,892.667 494.5,895C 466.519,896.343 438.519,896.843 410.5,896.5C 410.5,909.167 410.5,921.833 410.5,934.5C 439.185,934.153 467.852,934.653 496.5,936C 498.421,937.241 498.754,938.741 497.5,940.5C 465.526,943.094 433.526,943.094 401.5,940.5C 400.535,911.839 400.369,883.172 401,854.5C 401.067,848.945 401.9,843.612 403.5,838.5 Z"/></g>
<g><path style="opacity:1" fill="#272727" d="M 698.5,838.5 C 704.601,838.572 710.601,839.406 716.5,841C 717.779,843.498 717.779,845.998 716.5,848.5C 703.167,848.5 689.833,848.5 676.5,848.5C 676.849,879.184 676.349,909.851 675,940.5C 673.103,942.016 670.936,942.683 668.5,942.5C 668.5,911.167 668.5,879.833 668.5,848.5C 653.797,848.851 639.13,848.351 624.5,847C 622.006,844.756 622.006,842.423 624.5,840C 649.145,838.656 673.812,838.156 698.5,838.5 Z"/></g>
<g><path style="opacity:1" fill="#272727" d="M 852.5,856.5 C 852.5,866.5 852.5,876.5 852.5,886.5C 869.5,886.5 886.5,886.5 903.5,886.5C 914.549,886.15 925.549,886.65 936.5,888C 938.994,890.244 938.994,892.577 936.5,895C 933.568,895.953 930.568,896.453 927.5,896.5C 902.5,896.5 877.5,896.5 852.5,896.5C 852.5,909.167 852.5,921.833 852.5,934.5C 881.167,934.5 909.833,934.5 938.5,934.5C 938.5,937.167 938.5,939.833 938.5,942.5C 916.5,942.5 894.5,942.5 872.5,942.5C 863.127,941.547 853.794,941.214 844.5,941.5C 842.703,934.301 842.036,926.967 842.5,919.5C 842.5,895.833 842.5,872.167 842.5,848.5C 841.822,844.727 843.156,841.894 846.5,840C 877.15,838.662 907.817,838.162 938.5,838.5C 939.276,845.901 935.943,848.901 928.5,847.5C 903.177,848.421 877.843,848.755 852.5,848.5C 852.5,851.167 852.5,853.833 852.5,856.5 Z"/></g>
<g><path style="opacity:1" fill="#252525" d="M 1133.5,838.5 C 1141.86,838.526 1150.19,839.026 1158.5,840C 1160.02,842.925 1159.35,845.258 1156.5,847C 1141.18,847.987 1125.85,848.487 1110.5,848.5C 1101.58,848.817 1092.75,848.484 1084,847.5C 1080.66,850.509 1077.66,853.843 1075,857.5C 1073.31,861.824 1073.15,866.158 1074.5,870.5C 1075.58,876.49 1078.58,881.324 1083.5,885C 1102.82,886.143 1122.16,887.143 1141.5,888C 1146.51,889.837 1150.85,892.67 1154.5,896.5C 1162.28,907.612 1162.45,918.946 1155,930.5C 1146.15,939.729 1135.32,943.729 1122.5,942.5C 1103.17,942.5 1083.83,942.5 1064.5,942.5C 1064.5,939.833 1064.5,937.167 1064.5,934.5C 1072.5,934.5 1080.5,934.5 1088.5,934.5C 1106.32,935.56 1124.16,934.56 1142,931.5C 1142.33,931.833 1142.67,932.167 1143,932.5C 1145.73,928.759 1148.07,924.759 1150,920.5C 1151.36,913.879 1150.2,907.879 1146.5,902.5C 1144.57,900.526 1142.24,899.026 1139.5,898C 1120.85,896.828 1102.18,895.828 1083.5,895C 1075.31,890.643 1068.98,884.476 1064.5,876.5C 1062.45,859.422 1069.12,847.256 1084.5,840C 1100.8,838.694 1117.14,838.194 1133.5,838.5 Z"/></g>
<g><path style="opacity:1" fill="#232323" d="M 1254.5,838.5 C 1267.21,838.152 1279.88,838.652 1292.5,840C 1295.07,842.087 1297.74,843.92 1300.5,845.5C 1298.97,848.021 1296.64,849.021 1293.5,848.5C 1273.5,848.5 1253.5,848.5 1233.5,848.5C 1227.83,848.5 1222.17,848.5 1216.5,848.5C 1215.35,843.515 1217.18,840.515 1222,839.5C 1232.81,838.581 1243.64,838.248 1254.5,838.5 Z"/></g>
<g><path style="opacity:1" fill="#272727" d="M 1328.5,838.5 C 1330.39,838.297 1331.89,838.963 1333,840.5C 1333.74,867.562 1335.41,894.562 1338,921.5C 1339.83,926 1343,929.167 1347.5,931C 1365.51,935.609 1383.51,935.609 1401.5,931C 1406,929.167 1409.17,926 1411,921.5C 1413.49,894.55 1415.15,867.55 1416,840.5C 1417.15,838.503 1418.65,838.17 1420.5,839.5C 1422.04,852.923 1422.71,866.423 1422.5,880C 1429.62,931.547 1407.62,952.214 1356.5,942C 1335.9,938.41 1326.07,926.243 1327,905.5C 1326.14,883.126 1326.64,860.793 1328.5,838.5 Z"/></g>
<g><path style="opacity:1" fill="#252525" d="M 1500.5,896.5 C 1482.02,894.231 1463.36,893.564 1444.5,894.5C 1444.5,908.167 1444.5,921.833 1444.5,935.5C 1445.07,941.465 1442.91,943.131 1438,940.5C 1436.25,907.172 1436.08,873.838 1437.5,840.5C 1462.49,838.153 1487.49,837.986 1512.5,840C 1533,849.167 1538.17,863.667 1528,883.5C 1524.98,886.683 1521.82,889.683 1518.5,892.5C 1523.96,896.453 1528.12,901.453 1531,907.5C 1532.19,919.136 1532.69,930.803 1532.5,942.5C 1530.18,942.771 1528.18,942.104 1526.5,940.5C 1525.09,929.431 1523.25,918.431 1521,907.5C 1516.12,900.309 1509.29,896.642 1500.5,896.5 Z"/></g>
<g><path style="opacity:1" fill="#2d2d2d" d="M 1770.5,838.5 C 1772.75,838.916 1774.25,840.249 1775,842.5C 1776.35,875.817 1776.85,909.15 1776.5,942.5C 1773.4,942.846 1770.56,942.179 1768,940.5C 1765.36,906.393 1766.2,872.393 1770.5,838.5 Z"/></g>
<g><path style="opacity:1" fill="#282828" d="M 1792.5,838.5 C 1823.18,838.151 1853.85,838.651 1884.5,840C 1886.02,842.925 1885.35,845.258 1882.5,847C 1869.88,848.348 1857.21,848.848 1844.5,848.5C 1844.85,879.184 1844.35,909.851 1843,940.5C 1841.1,942.016 1838.94,942.683 1836.5,942.5C 1836.5,911.167 1836.5,879.833 1836.5,848.5C 1821.8,848.851 1807.13,848.351 1792.5,847C 1789.89,844.093 1789.89,841.26 1792.5,838.5 Z"/></g>
<g><path style="opacity:1" fill="#272727" d="M 603.5,838.5 C 604.5,838.5 605.5,838.5 606.5,838.5C 608.833,872.491 609,906.491 607,940.5C 605.534,942.325 603.701,942.825 601.5,942C 575.734,912.898 549.234,884.398 522,856.5C 521.19,884.509 520.19,912.509 519,940.5C 517.103,942.016 514.936,942.683 512.5,942.5C 512.333,919.831 512.5,897.164 513,874.5C 513.033,862.755 513.866,851.088 515.5,839.5C 519.067,840.907 522.234,842.907 525,845.5C 550.035,872.2 574.702,899.2 599,926.5C 599.83,897.825 600.83,869.158 602,840.5C 602.717,839.956 603.217,839.289 603.5,838.5 Z"/></g>
<g><path style="opacity:1" fill="#313131" d="M 1036.5,890.5 C 1047.3,898.794 1051.46,909.794 1049,923.5C 1045.73,931.602 1040.23,937.602 1032.5,941.5C 1031.95,937.803 1031.95,934.136 1032.5,930.5C 1038.44,924.862 1040.94,917.862 1040,909.5C 1036.92,903.254 1032.09,898.921 1025.5,896.5C 1008.14,896.82 990.805,896.32 973.5,895C 948.724,879.595 947.058,861.929 968.5,842C 995.099,837.84 1021.77,837.507 1048.5,841C 1051.46,844.132 1050.79,846.132 1046.5,847C 1022.18,848.203 997.845,849.203 973.5,850C 969.052,852.114 965.552,855.281 963,859.5C 960.658,870.489 964.158,878.989 973.5,885C 992.492,886.119 1011.49,887.119 1030.5,888C 1031.98,890.039 1033.98,890.872 1036.5,890.5 Z"/></g>
<g><path style="opacity:1" fill="#323232" d="M 1740.5,938.5 C 1720.1,943.483 1699.44,944.816 1678.5,942.5C 1674.35,938.493 1669.85,934.827 1665,931.5C 1661.61,927.391 1659.28,922.725 1658,917.5C 1656.68,891.852 1656.18,866.186 1656.5,840.5C 1659.48,840.104 1662.15,840.771 1664.5,842.5C 1666.2,867.797 1667.36,893.13 1668,918.5C 1669.12,922.794 1671.62,925.794 1675.5,927.5C 1679.51,931.679 1684.51,933.845 1690.5,934C 1700.17,934.667 1709.83,934.667 1719.5,934C 1737.46,931.547 1745.46,921.381 1743.5,903.5C 1744.04,882.46 1745.2,861.46 1747,840.5C 1748.4,838.473 1750.06,838.14 1752,839.5C 1753.2,843.716 1753.87,848.049 1754,852.5C 1754.79,874.518 1754.45,896.518 1753,918.5C 1749.08,925.354 1744.91,932.02 1740.5,938.5 Z"/></g>
<g><path style="opacity:1" fill="#232323" d="M 742.5,923.5 C 742.5,927.167 742.5,930.833 742.5,934.5C 770.519,934.145 798.519,934.645 826.5,936C 828.016,937.897 828.683,940.064 828.5,942.5C 797.158,942.686 765.825,942.353 734.5,941.5C 732.864,913.196 732.197,884.863 732.5,856.5C 732.506,851.785 733.006,847.118 734,842.5C 735.897,840.984 738.064,840.317 740.5,840.5C 740.333,862.503 740.5,884.503 741,906.5C 741.173,912.348 741.673,918.015 742.5,923.5 Z"/></g>
<g><path style="opacity:1" fill="#323232" d="M 1300.5,845.5 C 1303.76,846.927 1306.26,849.261 1308,852.5C 1316.28,873.433 1309.78,887.6 1288.5,895C 1268.53,896.35 1248.53,896.85 1228.5,896.5C 1228.5,911.833 1228.5,927.167 1228.5,942.5C 1225.4,942.846 1222.56,942.179 1220,940.5C 1218.19,923.181 1218.02,905.848 1219.5,888.5C 1244.87,887.233 1270.2,885.4 1295.5,883C 1297.33,881.167 1299.17,879.333 1301,877.5C 1304.96,866.054 1302.46,856.387 1293.5,848.5C 1296.64,849.021 1298.97,848.021 1300.5,845.5 Z"/></g>
<g><path style="opacity:1" fill="#292929" d="M 1582.5,838.5 C 1602.5,838.5 1622.5,838.5 1642.5,838.5C 1642.9,841.482 1642.23,844.149 1640.5,846.5C 1635.87,847.328 1631.2,847.828 1626.5,848C 1606.83,848.333 1587.17,848.667 1567.5,849C 1557.28,854.975 1553.78,863.808 1557,875.5C 1559.03,879.408 1561.87,882.575 1565.5,885C 1585.46,886.482 1605.46,887.482 1625.5,888C 1642.89,898.631 1647.06,913.131 1638,931.5C 1632.94,938.581 1626.11,942.081 1617.5,942C 1594.48,942.887 1571.48,942.553 1548.5,941C 1546.5,939.847 1546.17,938.347 1547.5,936.5C 1571.77,934.811 1596.11,933.644 1620.5,933C 1633.51,928.015 1637.67,918.848 1633,905.5C 1630.5,903 1628,900.5 1625.5,898C 1605.81,897.066 1586.14,895.732 1566.5,894C 1557.03,890.288 1550.87,883.455 1548,873.5C 1546.56,859.545 1551.73,848.712 1563.5,841C 1569.94,839.961 1576.27,839.127 1582.5,838.5 Z"/></g>
<g><path style="opacity:1" fill="#fdfffd" d="M 216.5,848.5 C 216.5,861.167 216.5,873.833 216.5,886.5C 207.833,886.5 199.167,886.5 190.5,886.5C 190.5,873.833 190.5,861.167 190.5,848.5C 199.167,848.5 207.833,848.5 216.5,848.5 Z"/></g>
<g><path style="opacity:1" fill="#f3f3f3" d="M 1110.5,848.5 C 1099.31,856.989 1087.31,864.322 1074.5,870.5C 1073.15,866.158 1073.31,861.824 1075,857.5C 1077.66,853.843 1080.66,850.509 1084,847.5C 1092.75,848.484 1101.58,848.817 1110.5,848.5 Z"/></g>
<g><path style="opacity:1" fill="#f7f7f7" d="M 1444.5,848.5 C 1466.87,848.091 1489.2,848.591 1511.5,850C 1524.87,856.79 1527.71,866.623 1520,879.5C 1517.59,881.956 1514.76,883.789 1511.5,885C 1489.2,886.409 1466.87,886.909 1444.5,886.5C 1444.5,873.833 1444.5,861.167 1444.5,848.5 Z"/></g>
<g><path style="opacity:1" fill="#c8c8c8" d="M 852.5,856.5 C 870.688,864.75 887.688,874.75 903.5,886.5C 886.5,886.5 869.5,886.5 852.5,886.5C 852.5,876.5 852.5,866.5 852.5,856.5 Z"/></g>
<g><path style="opacity:1" fill="#c6c6c6" d="M 1064.5,876.5 C 1068.98,884.476 1075.31,890.643 1083.5,895C 1102.18,895.828 1120.85,896.828 1139.5,898C 1142.24,899.026 1144.57,900.526 1146.5,902.5C 1125.91,911.136 1106.58,921.802 1088.5,934.5C 1080.5,934.5 1072.5,934.5 1064.5,934.5C 1064.5,937.167 1064.5,939.833 1064.5,942.5C 1083.83,942.5 1103.17,942.5 1122.5,942.5C 1104.31,943.785 1085.98,944.951 1067.5,946C 1058.67,950.915 1050,956.082 1041.5,961.5C 1061.47,975.496 1082.47,987.996 1104.5,999C 1107.67,1001 1110.33,1003.5 1112.5,1006.5C 1109.17,1006.5 1105.83,1006.5 1102.5,1006.5C 1102.5,1027.17 1102.5,1047.83 1102.5,1068.5C 1087.11,1059.72 1071.61,1051.05 1056,1042.5C 1054.55,1053.06 1054.05,1063.73 1054.5,1074.5C 1053.22,1051.84 1052.22,1029.18 1051.5,1006.5C 1048.83,1004.88 1045.83,1004.22 1042.5,1004.5C 1042.5,1014.5 1042.5,1024.5 1042.5,1034.5C 1021.53,1022.68 1000.53,1010.85 979.5,999C 974.189,998.995 970.522,1001.5 968.5,1006.5C 960.5,1006.5 952.5,1006.5 944.5,1006.5C 944.5,1027.83 944.5,1049.17 944.5,1070.5C 942.946,1053.69 942.113,1036.69 942,1019.5C 941.667,1019.17 941.333,1018.83 941,1018.5C 935.026,1022.57 928.859,1026.23 922.5,1029.5C 922.666,1024.16 922.499,1018.82 922,1013.5C 921.768,1012.26 921.268,1011.26 920.5,1010.5C 920.5,1009.17 920.5,1007.83 920.5,1006.5C 917.833,1006.5 915.167,1006.5 912.5,1006.5C 912.5,1020.17 912.5,1033.83 912.5,1047.5C 910.928,1044.78 909.928,1041.78 909.5,1038.5C 905.067,1039.21 901.4,1041.21 898.5,1044.5C 890.756,1033.05 883.756,1021.05 877.5,1008.5C 874.009,1006.91 870.342,1006.24 866.5,1006.5C 866.5,1008.83 866.5,1011.17 866.5,1013.5C 865.679,1016.64 865.179,1019.97 865,1023.5C 864.5,1037.16 864.333,1050.83 864.5,1064.5C 855.596,1069.12 846.596,1073.45 837.5,1077.5C 846.081,1064.11 848.914,1049.45 846,1033.5C 844.073,1024.31 839.573,1016.65 832.5,1010.5C 859.636,995.098 886.636,979.431 913.5,963.5C 909.625,959.461 905.292,955.961 900.5,953C 891.378,948.575 882.045,945.075 872.5,942.5C 894.5,942.5 916.5,942.5 938.5,942.5C 938.5,939.833 938.5,937.167 938.5,934.5C 909.833,934.5 881.167,934.5 852.5,934.5C 852.5,921.833 852.5,909.167 852.5,896.5C 877.5,896.5 902.5,896.5 927.5,896.5C 943.269,907.227 959.602,917.227 976.5,926.5C 994.066,918.231 1010.4,908.231 1025.5,896.5C 1032.09,898.921 1036.92,903.254 1040,909.5C 1040.94,917.862 1038.44,924.862 1032.5,930.5C 1031.85,929.909 1031.18,929.243 1030.5,928.5C 1029.61,930.007 1028.61,931.34 1027.5,932.5C 1027.17,932.5 1026.83,932.5 1026.5,932.5C 1025.21,932.263 1024.21,932.596 1023.5,933.5C 1022.5,933.5 1021.5,933.5 1020.5,933.5C 1019.04,932.314 1017.71,932.314 1016.5,933.5C 1015.17,933.5 1013.83,933.5 1012.5,933.5C 1009.26,931.985 1006.26,932.319 1003.5,934.5C 1002.17,934.5 1000.83,934.5 999.5,934.5C 999.5,933.167 999.5,931.833 999.5,930.5C 1001.17,930.5 1002.83,930.5 1004.5,930.5C 1004.5,929.5 1004.5,928.5 1004.5,927.5C 999.833,927.5 995.167,927.5 990.5,927.5C 990.5,928.5 990.5,929.5 990.5,930.5C 992.167,930.5 993.833,930.5 995.5,930.5C 995.5,931.833 995.5,933.167 995.5,934.5C 981.806,934.277 968.139,934.777 954.5,936C 952.982,938.925 953.649,941.258 956.5,943C 969.799,944.305 983.132,944.805 996.5,944.5C 997.167,944.5 997.833,944.5 998.5,944.5C 1000.83,944.5 1003.17,944.5 1005.5,944.5C 1008.22,945.767 1010.88,945.434 1013.5,943.5C 1014.5,943.5 1015.5,943.5 1016.5,943.5C 1017.5,944.833 1018.5,944.833 1019.5,943.5C 1020.83,943.5 1022.17,943.5 1023.5,943.5C 1024.5,944.833 1025.5,944.833 1026.5,943.5C 1027.61,943.443 1028.61,943.11 1029.5,942.5C 1031.31,945.338 1032.31,945.005 1032.5,941.5C 1040.23,937.602 1045.73,931.602 1049,923.5C 1051.46,909.794 1047.3,898.794 1036.5,890.5C 1046.34,886.78 1055.68,882.113 1064.5,876.5 Z"/></g>
<g><path style="opacity:1" fill="#868686" d="M 1500.5,896.5 C 1482.5,896.5 1464.5,896.5 1446.5,896.5C 1446.9,909.71 1446.23,922.71 1444.5,935.5C 1444.5,921.833 1444.5,908.167 1444.5,894.5C 1463.36,893.564 1482.02,894.231 1500.5,896.5 Z"/></g>
<g><path style="opacity:1" fill="#fdfffd" d="M 197.5,896.5 C 203.833,896.5 210.167,896.5 216.5,896.5C 216.5,909.167 216.5,921.833 216.5,934.5C 207.833,934.5 199.167,934.5 190.5,934.5C 190.5,921.833 190.5,909.167 190.5,896.5C 192.833,896.5 195.167,896.5 197.5,896.5 Z"/></g>
<g><path style="opacity:1" fill="#f7f7f7" d="M 1146.5,902.5 C 1150.2,907.879 1151.36,913.879 1150,920.5C 1148.07,924.759 1145.73,928.759 1143,932.5C 1142.67,932.167 1142.33,931.833 1142,931.5C 1124.16,934.56 1106.32,935.56 1088.5,934.5C 1106.58,921.802 1125.91,911.136 1146.5,902.5 Z"/></g>
<g><path style="opacity:1" fill="#d68c85" d="M 999.5,934.5 C 999.167,934.5 998.833,934.5 998.5,934.5C 998.5,932.833 998.5,931.167 998.5,929.5C 997.833,928.167 997.167,928.167 996.5,929.5C 996.5,931.167 996.5,932.833 996.5,934.5C 996.167,934.5 995.833,934.5 995.5,934.5C 995.5,933.167 995.5,931.833 995.5,930.5C 993.833,930.5 992.167,930.5 990.5,930.5C 990.5,929.5 990.5,928.5 990.5,927.5C 995.167,927.5 999.833,927.5 1004.5,927.5C 1004.5,928.5 1004.5,929.5 1004.5,930.5C 1002.83,930.5 1001.17,930.5 999.5,930.5C 999.5,931.833 999.5,933.167 999.5,934.5 Z"/></g>
<g><path style="opacity:1" fill="#c75246" d="M 1032.5,930.5 C 1031.95,934.136 1031.95,937.803 1032.5,941.5C 1032.31,945.005 1031.31,945.338 1029.5,942.5C 1029.77,938.917 1029.1,935.584 1027.5,932.5C 1028.61,931.34 1029.61,930.007 1030.5,928.5C 1031.18,929.243 1031.85,929.909 1032.5,930.5 Z"/></g>
<g><path style="opacity:1" fill="#333232" d="M 995.5,934.5 C 995.833,934.5 996.167,934.5 996.5,934.5C 996.5,937.833 996.5,941.167 996.5,944.5C 983.132,944.805 969.799,944.305 956.5,943C 953.649,941.258 952.982,938.925 954.5,936C 968.139,934.777 981.806,934.277 995.5,934.5 Z"/></g>
<g><path style="opacity:1" fill="#d75346" d="M 998.5,934.5 C 998.5,937.833 998.5,941.167 998.5,944.5C 997.833,944.5 997.167,944.5 996.5,944.5C 996.5,941.167 996.5,937.833 996.5,934.5C 996.5,932.833 996.5,931.167 996.5,929.5C 997.167,928.167 997.833,928.167 998.5,929.5C 998.5,931.167 998.5,932.833 998.5,934.5 Z"/></g>
<g><path style="opacity:1" fill="#423331" d="M 998.5,934.5 C 998.833,934.5 999.167,934.5 999.5,934.5C 1000.83,934.5 1002.17,934.5 1003.5,934.5C 1001.81,938.336 1002.47,941.67 1005.5,944.5C 1003.17,944.5 1000.83,944.5 998.5,944.5C 998.5,941.167 998.5,937.833 998.5,934.5 Z"/></g>
<g><path style="opacity:1" fill="#473432" d="M 1012.5,933.5 C 1013.83,933.5 1015.17,933.5 1016.5,933.5C 1020.5,936.833 1020.5,940.167 1016.5,943.5C 1015.5,943.5 1014.5,943.5 1013.5,943.5C 1013.63,942.624 1013.3,941.957 1012.5,941.5C 1008.79,944.663 1006.46,943.996 1005.5,939.5C 1008.5,939.5 1011.5,939.5 1014.5,939.5C 1014.75,937.142 1014.08,935.142 1012.5,933.5 Z"/></g>
<g><path style="opacity:1" fill="#3d2f2e" d="M 1026.5,932.5 C 1026.83,932.5 1027.17,932.5 1027.5,932.5C 1029.1,935.584 1029.77,938.917 1029.5,942.5C 1028.61,943.11 1027.61,943.443 1026.5,943.5C 1025.31,942.143 1024.31,940.643 1023.5,939C 1024.39,936.721 1025.39,934.554 1026.5,932.5 Z"/></g>
<g><path style="opacity:1" fill="#c15246" d="M 1012.5,933.5 C 1014.08,935.142 1014.75,937.142 1014.5,939.5C 1011.5,939.5 1008.5,939.5 1005.5,939.5C 1006.46,943.996 1008.79,944.663 1012.5,941.5C 1013.3,941.957 1013.63,942.624 1013.5,943.5C 1010.88,945.434 1008.22,945.767 1005.5,944.5C 1002.47,941.67 1001.81,938.336 1003.5,934.5C 1006.26,932.319 1009.26,931.985 1012.5,933.5 Z"/></g>
<g><path style="opacity:1" fill="#4b322f" d="M 1006.5,934.5 C 1008.66,934.116 1010.33,934.783 1011.5,936.5C 1009.5,937.833 1007.5,937.833 1005.5,936.5C 1005.86,935.817 1006.2,935.15 1006.5,934.5 Z"/></g>
<g><path style="opacity:1" fill="#cb5144" d="M 1020.5,933.5 C 1021.26,935.985 1022.26,935.985 1023.5,933.5C 1024.21,932.596 1025.21,932.263 1026.5,932.5C 1025.39,934.554 1024.39,936.721 1023.5,939C 1024.31,940.643 1025.31,942.143 1026.5,943.5C 1025.5,944.833 1024.5,944.833 1023.5,943.5C 1022.17,940.833 1020.83,940.833 1019.5,943.5C 1018.5,944.833 1017.5,944.833 1016.5,943.5C 1020.5,940.167 1020.5,936.833 1016.5,933.5C 1017.71,932.314 1019.04,932.314 1020.5,933.5 Z"/></g>
<g><path style="opacity:1" fill="#47312f" d="M 1020.5,933.5 C 1021.5,933.5 1022.5,933.5 1023.5,933.5C 1022.26,935.985 1021.26,935.985 1020.5,933.5 Z"/></g>
<g><path style="opacity:1" fill="#c8c8c8" d="M 1740.5,938.5 C 1740.5,972.5 1740.5,1006.5 1740.5,1040.5C 1719.83,1040.5 1699.17,1040.5 1678.5,1040.5C 1678.5,1007.83 1678.5,975.167 1678.5,942.5C 1699.44,944.816 1720.1,943.483 1740.5,938.5 Z"/></g>
<g><path style="opacity:1" fill="#503330" d="M 1023.5,943.5 C 1022.17,943.5 1020.83,943.5 1019.5,943.5C 1020.83,940.833 1022.17,940.833 1023.5,943.5 Z"/></g>
<g><path style="opacity:1" fill="#fdfdfd" d="M 1042.5,1034.5 C 1042.33,1046.5 1042.5,1058.5 1043,1070.5C 1043.18,1074.36 1043.68,1078.02 1044.5,1081.5C 1044.5,1082.5 1044.5,1083.5 1044.5,1084.5C 1059.11,1086.22 1073.77,1086.89 1088.5,1086.5C 1088.5,1083.17 1088.5,1079.83 1088.5,1076.5C 1076.78,1077.14 1065.45,1076.48 1054.5,1074.5C 1054.05,1063.73 1054.55,1053.06 1056,1042.5C 1071.61,1051.05 1087.11,1059.72 1102.5,1068.5C 1102.5,1074.5 1102.5,1080.5 1102.5,1086.5C 1105.83,1086.5 1109.17,1086.5 1112.5,1086.5C 1112.5,1083.17 1112.5,1079.83 1112.5,1076.5C 1179.21,1113.6 1245.38,1151.6 1311,1190.5C 1312.14,1241.82 1312.64,1293.15 1312.5,1344.5C 1312.33,1391.5 1312.17,1438.5 1312,1485.5C 1311.81,1516.51 1311.14,1547.51 1310,1578.5C 1199.08,1642.37 1088.25,1706.37 977.5,1770.5C 866.748,1706.37 755.915,1642.37 645,1578.5C 643.861,1547.51 643.195,1516.51 643,1485.5C 642.833,1438.5 642.667,1391.5 642.5,1344.5C 642.364,1293.15 642.864,1241.82 644,1190.5C 697.93,1158.45 752.43,1127.28 807.5,1097C 811.668,1094 815.335,1090.5 818.5,1086.5C 825.766,1085.37 832.1,1082.37 837.5,1077.5C 846.596,1073.45 855.596,1069.12 864.5,1064.5C 864.5,1071.83 864.5,1079.17 864.5,1086.5C 867.553,1086.89 870.22,1086.22 872.5,1084.5C 874.472,1075.56 875.139,1066.23 874.5,1056.5C 879.966,1054.05 885.632,1052.38 891.5,1051.5C 898.429,1062.36 905.095,1073.36 911.5,1084.5C 914.845,1086.22 918.511,1086.88 922.5,1086.5C 922.5,1067.5 922.5,1048.5 922.5,1029.5C 928.859,1026.23 935.026,1022.57 941,1018.5C 941.333,1018.83 941.667,1019.17 942,1019.5C 942.113,1036.69 942.946,1053.69 944.5,1070.5C 944.195,1075.76 944.529,1080.93 945.5,1086C 992.837,1088.65 1009.67,1067.15 996,1021.5C 988.993,1012.74 979.826,1007.74 968.5,1006.5C 970.522,1001.5 974.189,998.995 979.5,999C 1000.53,1010.85 1021.53,1022.68 1042.5,1034.5 Z"/></g>
<g><path style="opacity:1" fill="#888888" d="M 1051.5,1006.5 C 1049.17,1006.5 1046.83,1006.5 1044.5,1006.5C 1044.5,1031.5 1044.5,1056.5 1044.5,1081.5C 1043.68,1078.02 1043.18,1074.36 1043,1070.5C 1042.5,1058.5 1042.33,1046.5 1042.5,1034.5C 1042.5,1024.5 1042.5,1014.5 1042.5,1004.5C 1045.83,1004.22 1048.83,1004.88 1051.5,1006.5 Z"/></g>
<g><path style="opacity:1" fill="#262626" d="M 1330.5,1004.5 C 1338.45,1003.87 1346.12,1005.03 1353.5,1008C 1357.33,1009.8 1359.5,1012.64 1360,1016.5C 1359.42,1018 1358.58,1019.33 1357.5,1020.5C 1347.36,1013.85 1336.69,1012.85 1325.5,1017.5C 1323.44,1023.83 1324.61,1029.5 1329,1034.5C 1337.9,1038.47 1346.73,1042.64 1355.5,1047C 1365.57,1057.75 1366.07,1068.92 1357,1080.5C 1354.44,1082.73 1351.6,1084.56 1348.5,1086C 1334.29,1088.54 1321.96,1085.04 1311.5,1075.5C 1312.83,1073.5 1314.5,1071.83 1316.5,1070.5C 1324.71,1077.11 1334.05,1079.28 1344.5,1077C 1353.83,1074.74 1357,1068.91 1354,1059.5C 1344.57,1052.53 1334.4,1046.7 1323.5,1042C 1311.74,1031.19 1311.74,1020.19 1323.5,1009C 1325.9,1007.48 1328.23,1005.98 1330.5,1004.5 Z"/></g>
<g><path style="opacity:1" fill="#272727" d="M 832.5,1010.5 C 839.573,1016.65 844.073,1024.31 846,1033.5C 848.914,1049.45 846.081,1064.11 837.5,1077.5C 832.1,1082.37 825.766,1085.37 818.5,1086.5C 800.276,1088.31 788.11,1080.64 782,1063.5C 781.035,1054.52 780.535,1045.52 780.5,1036.5C 787.106,1006.53 804.44,997.863 832.5,1010.5 Z"/></g>
<g><path style="opacity:1" fill="#252525" d="M 592.5,1006.5 C 604.872,1006.19 617.205,1006.69 629.5,1008C 640.161,1012.49 643.994,1020.32 641,1031.5C 637.833,1036 634,1039.83 629.5,1043C 645.234,1047.97 650.067,1058.13 644,1073.5C 640.358,1078.15 635.858,1081.65 630.5,1084C 617.906,1085.9 605.24,1086.73 592.5,1086.5C 592.5,1059.83 592.5,1033.17 592.5,1006.5 Z"/></g>
<g><path style="opacity:1" fill="#202020" d="M 674.5,1015.5 C 672.191,1023.61 671.524,1031.94 672.5,1040.5C 681.5,1040.5 690.5,1040.5 699.5,1040.5C 700.791,1040.26 701.791,1040.6 702.5,1041.5C 702.5,1043.17 702.5,1044.83 702.5,1046.5C 692.5,1046.5 682.5,1046.5 672.5,1046.5C 671.575,1056.38 672.241,1066.04 674.5,1075.5C 686.593,1075.66 698.593,1077.32 710.5,1080.5C 710.843,1082.48 710.176,1083.82 708.5,1084.5C 693.833,1084.5 679.167,1084.5 664.5,1084.5C 664.5,1060.5 664.5,1036.5 664.5,1012.5C 664.5,1010.5 664.5,1008.5 664.5,1006.5C 679.167,1006.5 693.833,1006.5 708.5,1006.5C 708.5,1009.17 708.5,1011.83 708.5,1014.5C 696.988,1014.17 685.654,1014.51 674.5,1015.5 Z"/></g>
<g><path style="opacity:1" fill="#242424" d="M 752.5,1052.5 C 751.732,1053.26 751.232,1054.26 751,1055.5C 750.5,1065.83 750.334,1076.16 750.5,1086.5C 747.167,1086.5 743.833,1086.5 740.5,1086.5C 740.5,1079.17 740.5,1071.83 740.5,1064.5C 740.494,1059.78 739.994,1055.12 739,1050.5C 731.016,1036.2 723.849,1021.53 717.5,1006.5C 721.215,1006.2 724.715,1006.86 728,1008.5C 733.613,1019.28 738.78,1030.28 743.5,1041.5C 744.242,1042.29 745.075,1042.95 746,1043.5C 752.721,1032.72 758.388,1021.39 763,1009.5C 765.933,1005.68 769.099,1005.52 772.5,1009C 764.615,1022.94 757.948,1037.44 752.5,1052.5 Z"/></g>
<g><path style="opacity:1" fill="#242424" d="M 898.5,1044.5 C 902.383,1053.27 906.549,1061.93 911,1070.5C 912.464,1063.01 912.964,1055.34 912.5,1047.5C 912.5,1033.83 912.5,1020.17 912.5,1006.5C 915.167,1006.5 917.833,1006.5 920.5,1006.5C 920.5,1007.83 920.5,1009.17 920.5,1010.5C 920.5,1035.17 920.5,1059.83 920.5,1084.5C 917.5,1084.5 914.5,1084.5 911.5,1084.5C 905.095,1073.36 898.429,1062.36 891.5,1051.5C 885.837,1042.18 880.67,1032.51 876,1022.5C 874.544,1033.73 874.044,1045.06 874.5,1056.5C 875.139,1066.23 874.472,1075.56 872.5,1084.5C 870.5,1084.5 868.5,1084.5 866.5,1084.5C 866.5,1060.83 866.5,1037.17 866.5,1013.5C 866.5,1011.17 866.5,1008.83 866.5,1006.5C 870.342,1006.24 874.009,1006.91 877.5,1008.5C 883.756,1021.05 890.756,1033.05 898.5,1044.5 Z"/></g>
<g><path style="opacity:1" fill="#252525" d="M 968.5,1006.5 C 979.826,1007.74 988.993,1012.74 996,1021.5C 1009.67,1067.15 992.837,1088.65 945.5,1086C 944.529,1080.93 944.195,1075.76 944.5,1070.5C 944.5,1049.17 944.5,1027.83 944.5,1006.5C 952.5,1006.5 960.5,1006.5 968.5,1006.5 Z"/></g>
<g><path style="opacity:1" fill="#282828" d="M 1051.5,1006.5 C 1052.22,1029.18 1053.22,1051.84 1054.5,1074.5C 1065.45,1076.48 1076.78,1077.14 1088.5,1076.5C 1088.5,1079.83 1088.5,1083.17 1088.5,1086.5C 1073.77,1086.89 1059.11,1086.22 1044.5,1084.5C 1044.5,1083.5 1044.5,1082.5 1044.5,1081.5C 1044.5,1056.5 1044.5,1031.5 1044.5,1006.5C 1046.83,1006.5 1049.17,1006.5 1051.5,1006.5 Z"/></g>
<g><path style="opacity:1" fill="#1e1f1e" d="M 1112.5,1006.5 C 1112.5,1029.83 1112.5,1053.17 1112.5,1076.5C 1112.5,1079.83 1112.5,1083.17 1112.5,1086.5C 1109.17,1086.5 1105.83,1086.5 1102.5,1086.5C 1102.5,1080.5 1102.5,1074.5 1102.5,1068.5C 1102.5,1047.83 1102.5,1027.17 1102.5,1006.5C 1105.83,1006.5 1109.17,1006.5 1112.5,1006.5 Z"/></g>
<g><path style="opacity:1" fill="#252525" d="M 1156.5,1031.5 C 1159.71,1042.79 1163.71,1053.79 1168.5,1064.5C 1171.37,1056.54 1174.04,1048.54 1176.5,1040.5C 1181.2,1030.42 1185.37,1020.09 1189,1009.5C 1192.41,1006.99 1196.25,1005.99 1200.5,1006.5C 1200.5,1007.5 1200.5,1008.5 1200.5,1009.5C 1200.5,1034.5 1200.5,1059.5 1200.5,1084.5C 1197.83,1084.5 1195.17,1084.5 1192.5,1084.5C 1192.5,1074.5 1192.5,1064.5 1192.5,1054.5C 1192.97,1044 1192.47,1033.67 1191,1023.5C 1184.8,1041.09 1178.8,1058.76 1173,1076.5C 1170.48,1078.66 1167.64,1079 1164.5,1077.5C 1159.02,1061.06 1153.35,1044.73 1147.5,1028.5C 1146.24,1025.23 1145.08,1021.89 1144,1018.5C 1143.67,1019.83 1143.33,1021.17 1143,1022.5C 1142.5,1043.16 1142.33,1063.83 1142.5,1084.5C 1140.5,1084.5 1138.5,1084.5 1136.5,1084.5C 1136.5,1058.83 1136.5,1033.17 1136.5,1007.5C 1140.02,1006.16 1143.52,1006.5 1147,1008.5C 1150.28,1016.2 1153.45,1023.86 1156.5,1031.5 Z"/></g>
<g><path style="opacity:1" fill="#1f201f" d="M 1232.5,1011.5 C 1232.5,1036.5 1232.5,1061.5 1232.5,1086.5C 1229.83,1086.5 1227.17,1086.5 1224.5,1086.5C 1224.5,1060.83 1224.5,1035.17 1224.5,1009.5C 1224.5,1008.5 1224.5,1007.5 1224.5,1006.5C 1227.17,1006.5 1229.83,1006.5 1232.5,1006.5C 1232.5,1008.17 1232.5,1009.83 1232.5,1011.5 Z"/></g>
<g><path style="opacity:1" fill="#1d1e1d" d="M 1248.5,1006.5 C 1267.83,1006.5 1287.17,1006.5 1306.5,1006.5C 1306.5,1009.17 1306.5,1011.83 1306.5,1014.5C 1298.5,1014.5 1290.5,1014.5 1282.5,1014.5C 1282.5,1038.5 1282.5,1062.5 1282.5,1086.5C 1279.17,1086.5 1275.83,1086.5 1272.5,1086.5C 1272.5,1062.5 1272.5,1038.5 1272.5,1014.5C 1264.5,1014.5 1256.5,1014.5 1248.5,1014.5C 1248.5,1011.83 1248.5,1009.17 1248.5,1006.5 Z"/></g>
<g><path style="opacity:1" fill="#c9c9c9" d="M 1112.5,1006.5 C 1120.07,1009.29 1127.4,1012.62 1134.5,1016.5C 1134.5,1039.83 1134.5,1063.17 1134.5,1086.5C 1137.83,1086.5 1141.17,1086.5 1144.5,1086.5C 1144.33,1070.83 1144.5,1055.16 1145,1039.5C 1145.11,1035.53 1145.94,1031.87 1147.5,1028.5C 1153.35,1044.73 1159.02,1061.06 1164.5,1077.5C 1167.64,1079 1170.48,1078.66 1173,1076.5C 1178.8,1058.76 1184.8,1041.09 1191,1023.5C 1192.47,1033.67 1192.97,1044 1192.5,1054.5C 1191.69,1056.63 1191.19,1058.96 1191,1061.5C 1190.5,1069.83 1190.33,1078.16 1190.5,1086.5C 1194.5,1086.5 1198.5,1086.5 1202.5,1086.5C 1202.5,1076.5 1202.5,1066.5 1202.5,1056.5C 1208.71,1059.19 1214.55,1062.52 1220,1066.5C 1221.68,1047.37 1223.18,1028.37 1224.5,1009.5C 1224.5,1035.17 1224.5,1060.83 1224.5,1086.5C 1227.17,1086.5 1229.83,1086.5 1232.5,1086.5C 1232.5,1061.5 1232.5,1036.5 1232.5,1011.5C 1234.21,1032.31 1235.37,1053.31 1236,1074.5C 1281.17,1101.42 1326.5,1128.09 1372,1154.5C 1373.92,1283.83 1375.59,1413.16 1377,1542.5C 1476.67,1484.5 1576.33,1426.5 1676,1368.5C 1678.06,1263.18 1678.9,1157.84 1678.5,1052.5C 1678.5,1051.83 1678.5,1051.17 1678.5,1050.5C 1699.17,1050.5 1719.83,1050.5 1740.5,1050.5C 1740.66,1167.84 1740.16,1285.17 1739,1402.5C 1486.07,1550.05 1232.57,1696.72 978.5,1842.5C 724.428,1696.72 470.928,1550.05 218,1402.5C 216.681,1285.17 216.181,1167.84 216.5,1050.5C 237.167,1050.5 257.833,1050.5 278.5,1050.5C 278.5,1051.17 278.5,1051.83 278.5,1052.5C 278.103,1157.84 278.936,1263.18 281,1368.5C 379.316,1426.41 478.15,1483.41 577.5,1539.5C 577.908,1540.64 578.575,1541.64 579.5,1542.5C 580.325,1538.88 580.825,1535.21 581,1531.5C 582.311,1418.17 582.811,1304.84 582.5,1191.5C 582.178,1178.92 582.511,1166.42 583.5,1154C 621.728,1131.73 659.728,1109.23 697.5,1086.5C 701.489,1086.88 705.155,1086.22 708.5,1084.5C 710.176,1083.82 710.843,1082.48 710.5,1080.5C 720.183,1074.66 730.183,1069.32 740.5,1064.5C 740.5,1071.83 740.5,1079.17 740.5,1086.5C 743.833,1086.5 747.167,1086.5 750.5,1086.5C 750.334,1076.16 750.5,1065.83 751,1055.5C 751.232,1054.26 751.732,1053.26 752.5,1052.5C 752.47,1053.5 752.97,1054.16 754,1054.5C 764.326,1050.67 773.159,1044.67 780.5,1036.5C 780.535,1045.52 781.035,1054.52 782,1063.5C 788.11,1080.64 800.276,1088.31 818.5,1086.5C 815.335,1090.5 811.668,1094 807.5,1097C 752.43,1127.28 697.93,1158.45 644,1190.5C 642.864,1241.82 642.364,1293.15 642.5,1344.5C 642.667,1391.5 642.833,1438.5 643,1485.5C 643.195,1516.51 643.861,1547.51 645,1578.5C 755.915,1642.37 866.748,1706.37 977.5,1770.5C 1088.25,1706.37 1199.08,1642.37 1310,1578.5C 1311.14,1547.51 1311.81,1516.51 1312,1485.5C 1312.17,1438.5 1312.33,1391.5 1312.5,1344.5C 1312.64,1293.15 1312.14,1241.82 1311,1190.5C 1245.38,1151.6 1179.21,1113.6 1112.5,1076.5C 1112.5,1053.17 1112.5,1029.83 1112.5,1006.5 Z"/></g>
<g><path style="opacity:1" fill="#4f4f4f" d="M 1136.5,1007.5 C 1136.5,1033.17 1136.5,1058.83 1136.5,1084.5C 1138.5,1084.5 1140.5,1084.5 1142.5,1084.5C 1142.33,1063.83 1142.5,1043.16 1143,1022.5C 1143.33,1021.17 1143.67,1019.83 1144,1018.5C 1145.08,1021.89 1146.24,1025.23 1147.5,1028.5C 1145.94,1031.87 1145.11,1035.53 1145,1039.5C 1144.5,1055.16 1144.33,1070.83 1144.5,1086.5C 1141.17,1086.5 1137.83,1086.5 1134.5,1086.5C 1134.5,1063.17 1134.5,1039.83 1134.5,1016.5C 1134.22,1013.17 1134.88,1010.17 1136.5,1007.5 Z"/></g>
<g><path style="opacity:1" fill="#545454" d="M 920.5,1010.5 C 921.268,1011.26 921.768,1012.26 922,1013.5C 922.499,1018.82 922.666,1024.16 922.5,1029.5C 922.5,1048.5 922.5,1067.5 922.5,1086.5C 918.511,1086.88 914.845,1086.22 911.5,1084.5C 914.5,1084.5 917.5,1084.5 920.5,1084.5C 920.5,1059.83 920.5,1035.17 920.5,1010.5 Z"/></g>
<g><path style="opacity:1" fill="#777777" d="M 617.5,1014.5 C 612.5,1014.5 607.5,1014.5 602.5,1014.5C 602.5,1021.83 602.5,1029.17 602.5,1036.5C 600.731,1028.74 600.065,1020.74 600.5,1012.5C 604.846,1012.33 609.179,1012.5 613.5,1013C 615.058,1013.21 616.391,1013.71 617.5,1014.5 Z"/></g>
<g><path style="opacity:1" fill="#e7e7e7" d="M 819.5,1014.5 C 813.043,1021.99 805.21,1027.65 796,1031.5C 794.699,1031.36 793.866,1030.69 793.5,1029.5C 795.614,1019.72 801.614,1014.05 811.5,1012.5C 814.438,1012.57 817.105,1013.23 819.5,1014.5 Z"/></g>
<g><path style="opacity:1" fill="#f8f8f8" d="M 969.5,1076.5 C 964.5,1076.5 959.5,1076.5 954.5,1076.5C 954.5,1057.5 954.5,1038.5 954.5,1019.5C 954.261,1017.53 954.594,1015.7 955.5,1014C 966.579,1011.81 976.079,1014.64 984,1022.5C 985.796,1025.93 987.963,1029.09 990.5,1032C 990.601,1039.96 990.434,1048.13 990,1056.5C 988.584,1068.75 981.751,1075.42 969.5,1076.5 Z"/></g>
<g><path style="opacity:1" fill="#f4f4f4" d="M 617.5,1014.5 C 631.606,1015.05 635.773,1021.72 630,1034.5C 627.137,1037.52 623.637,1039.35 619.5,1040C 613.805,1040.63 608.138,1040.46 602.5,1039.5C 602.5,1038.5 602.5,1037.5 602.5,1036.5C 602.5,1029.17 602.5,1021.83 602.5,1014.5C 607.5,1014.5 612.5,1014.5 617.5,1014.5 Z"/></g>
<g><path style="opacity:1" fill="#c1c1c1" d="M 819.5,1014.5 C 827.914,1017.75 833.414,1023.75 836,1032.5C 839.724,1049 835.891,1063.33 824.5,1075.5C 804.512,1080.68 793.345,1073.01 791,1052.5C 790.333,1047.17 790.333,1041.83 791,1036.5C 791.156,1033.81 791.989,1031.48 793.5,1029.5C 793.866,1030.69 794.699,1031.36 796,1031.5C 805.21,1027.65 813.043,1021.99 819.5,1014.5 Z"/></g>
<g><path style="opacity:1" fill="#7e7e7e" d="M 1200.5,1009.5 C 1201.32,1012.98 1201.82,1016.64 1202,1020.5C 1202.5,1032.5 1202.67,1044.5 1202.5,1056.5C 1202.5,1066.5 1202.5,1076.5 1202.5,1086.5C 1198.5,1086.5 1194.5,1086.5 1190.5,1086.5C 1190.33,1078.16 1190.5,1069.83 1191,1061.5C 1191.19,1058.96 1191.69,1056.63 1192.5,1054.5C 1192.5,1064.5 1192.5,1074.5 1192.5,1084.5C 1195.17,1084.5 1197.83,1084.5 1200.5,1084.5C 1200.5,1059.5 1200.5,1034.5 1200.5,1009.5 Z"/></g>
<g><path style="opacity:1" fill="#4e4e4e" d="M 866.5,1013.5 C 866.5,1037.17 866.5,1060.83 866.5,1084.5C 868.5,1084.5 870.5,1084.5 872.5,1084.5C 870.22,1086.22 867.553,1086.89 864.5,1086.5C 864.5,1079.17 864.5,1071.83 864.5,1064.5C 864.333,1050.83 864.5,1037.16 865,1023.5C 865.179,1019.97 865.679,1016.64 866.5,1013.5 Z"/></g>
<g><path style="opacity:1" fill="#8a8a8a" d="M 674.5,1015.5 C 674.5,1023.17 674.5,1030.83 674.5,1038.5C 681.175,1038.33 687.842,1038.5 694.5,1039C 696.382,1039.2 698.048,1039.7 699.5,1040.5C 690.5,1040.5 681.5,1040.5 672.5,1040.5C 671.524,1031.94 672.191,1023.61 674.5,1015.5 Z"/></g>
<g><path style="opacity:1" fill="#595959" d="M 664.5,1012.5 C 664.5,1036.5 664.5,1060.5 664.5,1084.5C 679.167,1084.5 693.833,1084.5 708.5,1084.5C 705.155,1086.22 701.489,1086.88 697.5,1086.5C 685.833,1086.5 674.167,1086.5 662.5,1086.5C 662.333,1067.83 662.5,1049.16 663,1030.5C 663.172,1024.32 663.672,1018.32 664.5,1012.5 Z"/></g>
<g><path style="opacity:1" fill="#bfbfbf" d="M 891.5,1051.5 C 885.632,1052.38 879.966,1054.05 874.5,1056.5C 874.044,1045.06 874.544,1033.73 876,1022.5C 880.67,1032.51 885.837,1042.18 891.5,1051.5 Z"/></g>
<g><path style="opacity:1" fill="#585858" d="M 954.5,1019.5 C 954.5,1038.5 954.5,1057.5 954.5,1076.5C 959.5,1076.5 964.5,1076.5 969.5,1076.5C 966.282,1077.95 962.782,1078.62 959,1078.5C 956.3,1078.61 953.8,1078.11 951.5,1077C 952.043,1057.71 953.043,1038.55 954.5,1019.5 Z"/></g>
<g><path style="opacity:1" fill="#bbbbbb" d="M 1156.5,1031.5 C 1163.4,1033.95 1170.06,1036.95 1176.5,1040.5C 1174.04,1048.54 1171.37,1056.54 1168.5,1064.5C 1163.71,1053.79 1159.71,1042.79 1156.5,1031.5 Z"/></g>
<g><path style="opacity:1" fill="#f0f0f0" d="M 912.5,1047.5 C 912.964,1055.34 912.464,1063.01 911,1070.5C 906.549,1061.93 902.383,1053.27 898.5,1044.5C 901.4,1041.21 905.067,1039.21 909.5,1038.5C 909.928,1041.78 910.928,1044.78 912.5,1047.5 Z"/></g>
<g><path style="opacity:1" fill="#373737" d="M 216.5,1040.5 C 237.167,1040.5 257.833,1040.5 278.5,1040.5C 372.668,1040.17 466.668,1040.5 560.5,1041.5C 560.5,1041.83 560.5,1042.17 560.5,1042.5C 414.5,1042.5 268.5,1042.5 122.5,1042.5C 122.5,1044.83 122.5,1047.17 122.5,1049.5C 120.882,1046.83 120.215,1043.83 120.5,1040.5C 152.5,1040.5 184.5,1040.5 216.5,1040.5 Z"/></g>
<g><path style="opacity:1" fill="#363736" d="M 1396.5,1040.5 C 1490.5,1040.5 1584.5,1040.5 1678.5,1040.5C 1699.17,1040.5 1719.83,1040.5 1740.5,1040.5C 1772.5,1040.5 1804.5,1040.5 1836.5,1040.5C 1836.89,1043.55 1836.22,1046.22 1834.5,1048.5C 1834.5,1046.5 1834.5,1044.5 1834.5,1042.5C 1688.5,1042.5 1542.5,1042.5 1396.5,1042.5C 1396.5,1041.83 1396.5,1041.17 1396.5,1040.5 Z"/></g>
<g><path style="opacity:1" fill="#1f201f" d="M 560.5,1042.5 C 560.5,1045.17 560.5,1047.83 560.5,1050.5C 466.5,1050.5 372.5,1050.5 278.5,1050.5C 257.833,1050.5 237.167,1050.5 216.5,1050.5C 184.996,1050.83 153.662,1050.5 122.5,1049.5C 122.5,1047.17 122.5,1044.83 122.5,1042.5C 268.5,1042.5 414.5,1042.5 560.5,1042.5 Z"/></g>
<g><path style="opacity:1" fill="#dfdfdf" d="M 560.5,1041.5 C 562.217,1044.84 562.884,1048.51 562.5,1052.5C 467.833,1052.5 373.167,1052.5 278.5,1052.5C 278.5,1051.83 278.5,1051.17 278.5,1050.5C 372.5,1050.5 466.5,1050.5 560.5,1050.5C 560.5,1047.83 560.5,1045.17 560.5,1042.5C 560.5,1042.17 560.5,1041.83 560.5,1041.5 Z"/></g>
<g><path style="opacity:1" fill="#6b6b6b" d="M 702.5,1041.5 C 704.163,1043.44 704.829,1045.77 704.5,1048.5C 694.5,1048.5 684.5,1048.5 674.5,1048.5C 674.5,1057.5 674.5,1066.5 674.5,1075.5C 672.241,1066.04 671.575,1056.38 672.5,1046.5C 682.5,1046.5 692.5,1046.5 702.5,1046.5C 702.5,1044.83 702.5,1043.17 702.5,1041.5 Z"/></g>
<g><path style="opacity:1" fill="#dfdfdf" d="M 1396.5,1040.5 C 1396.5,1041.17 1396.5,1041.83 1396.5,1042.5C 1396.5,1045.17 1396.5,1047.83 1396.5,1050.5C 1490.5,1050.5 1584.5,1050.5 1678.5,1050.5C 1678.5,1051.17 1678.5,1051.83 1678.5,1052.5C 1583.83,1052.5 1489.17,1052.5 1394.5,1052.5C 1394.08,1048.18 1394.75,1044.18 1396.5,1040.5 Z"/></g>
<g><path style="opacity:1" fill="#1f201f" d="M 1396.5,1042.5 C 1542.5,1042.5 1688.5,1042.5 1834.5,1042.5C 1834.5,1044.5 1834.5,1046.5 1834.5,1048.5C 1803.52,1050.49 1772.18,1051.16 1740.5,1050.5C 1719.83,1050.5 1699.17,1050.5 1678.5,1050.5C 1584.5,1050.5 1490.5,1050.5 1396.5,1050.5C 1396.5,1047.83 1396.5,1045.17 1396.5,1042.5 Z"/></g>
<g><path style="opacity:1" fill="#848484" d="M 621.5,1048.5 C 615.167,1048.5 608.833,1048.5 602.5,1048.5C 602.5,1056.83 602.5,1065.17 602.5,1073.5C 600.789,1064.73 600.123,1055.73 600.5,1046.5C 607.73,1046.26 614.73,1046.93 621.5,1048.5 Z"/></g>
<g><path style="opacity:1" fill="#f7f7f7" d="M 621.5,1048.5 C 636.302,1050.13 640.802,1057.8 635,1071.5C 632.293,1073.94 629.127,1075.44 625.5,1076C 617.886,1078.05 610.219,1078.55 602.5,1077.5C 602.5,1076.17 602.5,1074.83 602.5,1073.5C 602.5,1065.17 602.5,1056.83 602.5,1048.5C 608.833,1048.5 615.167,1048.5 621.5,1048.5 Z"/></g>
<g><path style="opacity:1" fill="#e3e3e3" d="M 582.5,1191.5 C 582.811,1304.84 582.311,1418.17 581,1531.5C 580.825,1535.21 580.325,1538.88 579.5,1542.5C 578.575,1541.64 577.908,1540.64 577.5,1539.5C 579.428,1423.5 581.094,1307.5 582.5,1191.5 Z"/></g>
</svg>
